/* XPM */
static char *out[] = {
/* columns rows colors chars-per-pixel */
"64 64 222 2 ",
"   c #332F2D",
".  c #363A2D",
"X  c #3D3A32",
"o  c #452D0D",
"O  c #453519",
"+  c #653B09",
"@  c #45352E",
"#  c #51382E",
"$  c #463A35",
"%  c #4D3C34",
"&  c #523B35",
"*  c #5B3B35",
"=  c #533D38",
"-  c #5C3D38",
";  c #633E35",
":  c #36462C",
">  c #30512E",
",  c #394B35",
"<  c #394836",
"1  c #375539",
"2  c #3D513C",
"3  c #355B3D",
"4  c #3B5C3B",
"5  c #3B6B34",
"6  c #37653D",
"7  c #3B643D",
"8  c #3A6A3D",
"9  c #565B1C",
"0  c #6F4A14",
"q  c #76731B",
"w  c #4D5D21",
"e  c #424434",
"r  c #4A4335",
"t  c #444D34",
"y  c #4C4B35",
"u  c #44433B",
"i  c #4B443A",
"p  c #424D3A",
"a  c #4B4B3A",
"s  c #5C4335",
"d  c #564937",
"f  c #544539",
"g  c #5B453A",
"h  c #5C4D3B",
"j  c #485A34",
"k  c #44533A",
"l  c #4C523B",
"z  c #435C3C",
"x  c #4A5C3B",
"c  c #585638",
"v  c #5C5B3B",
"b  c #654236",
"n  c #6C4536",
"m  c #6B4A36",
"M  c #6C4638",
"N  c #644A38",
"B  c #654D3C",
"V  c #6C4A39",
"C  c #704737",
"Z  c #744A37",
"A  c #734B39",
"S  c #7A4F3A",
"D  c #605237",
"F  c #64543B",
"G  c #6B543B",
"H  c #645A3B",
"J  c #6C5C3D",
"K  c #73533B",
"L  c #7C523B",
"P  c #745B3C",
"I  c #7B5B3C",
"U  c #4D6B29",
"Y  c #586624",
"T  c #446434",
"R  c #496734",
"E  c #456B36",
"W  c #43633B",
"Q  c #4C643B",
"!  c #436C3C",
"~  c #4B6B3C",
"^  c #54633A",
"/  c #5D643B",
"(  c #546C3D",
")  c #5C6D3D",
"_  c #487936",
"`  c #44733C",
"'  c #4B743B",
"]  c #467A3C",
"[  c #4B7C3C",
"{  c #53743C",
"}  c #547C3E",
"|  c #5A793B",
" . c #6C6A34",
".. c #66683C",
"X. c #365C40",
"o. c #346443",
"O. c #386541",
"+. c #366B44",
"@. c #3C6C42",
"#. c #3B7243",
"$. c #3C7843",
"%. c #4C5441",
"&. c #7E5943",
"*. c #426540",
"=. c #446D40",
"-. c #546541",
";. c #4C7442",
":. c #427B42",
">. c #487942",
",. c #587644",
"<. c #A2570A",
"1. c #9F640C",
"2. c #A96C0E",
"3. c #B3700A",
"4. c #83553B",
"5. c #89573D",
"6. c #85593C",
"7. c #8D5C3D",
"8. c #915E3E",
"9. c #9A693D",
"0. c #D67B0B",
"q. c #DF7A10",
"w. c #E17C07",
"e. c #845B41",
"r. c #8A5C40",
"t. c #916443",
"y. c #488637",
"u. c #46823E",
"i. c #4B833D",
"p. c #4D8C3D",
"a. c #52833D",
"s. c #528C3D",
"d. c #4F913E",
"f. c #52963E",
"g. c #5A963F",
"h. c #54993E",
"j. c #5A9B3E",
"k. c #679E3E",
"l. c #59A03D",
"z. c #67A13E",
"x. c #7CAB3D",
"c. c #458242",
"v. c #4A8541",
"b. c #478940",
"n. c #4C8C40",
"m. c #538441",
"M. c #548D43",
"N. c #5B8A42",
"B. c #4E9040",
"V. c #529640",
"C. c #599442",
"Z. c #559941",
"A. c #5A9D41",
"S. c #569148",
"D. c #629D43",
"F. c #5DA142",
"G. c #62A545",
"H. c #66AA46",
"J. c #69AC47",
"K. c #65A848",
"L. c #6BAD4A",
"P. c #6EB24B",
"I. c #71B44A",
"U. c #B3820D",
"Y. c #B39C2A",
"T. c #B19B35",
"R. c #8AAD36",
"E. c #92AC33",
"W. c #87B03D",
"Q. c #92B03A",
"!. c #AFB937",
"~. c #DE8808",
"^. c #E7880A",
"/. c #F18E06",
"(. c #E8960A",
"). c #ED9E0A",
"_. c #F29405",
"`. c #F59907",
"'. c #E68A14",
"]. c #E6961B",
"[. c #ECA60A",
"{. c #FAA106",
"}. c #F8AA06",
"|. c #F3AC0B",
" X c #EAB40C",
".X c #F6B909",
"XX c #F2BD0C",
"oX c #EAA213",
"OX c #EBA31A",
"+X c #F1AA16",
"@X c #F2B618",
"#X c #E79B21",
"$X c #ECAC28",
"%X c #A7C03C",
"&X c #FACD05",
"*X c #F8C309",
"=X c #FCD304",
"-X c #F7D10E",
";X c #FAD30B",
":X c #F6CB1C",
">X c #FAD516",
",X c #F3C82C",
"<X c #F8D626",
"1X c #FAE031",
"2X c #9C8D52",
"3X c #BEBB65",
"4X c #C4984C",
"5X c #C4B759",
"6X c #F3BE51",
"7X c #C9B667",
"8X c #ACC850",
"9X c #A4C865",
"0X c #EDCF4D",
"qX c #F7D94A",
"wX c #F6D761",
"eX c #F2C872",
"rX c #F7E46E",
"tX c #F6DA85",
"yX c #F4E48D",
"uX c #F9E998",
"iX c #FAECA3",
"pX c #F9F1CC",
/* pixels */
"f.B.b.f.f.f.f.f.f.h.f.f.d.f.h.f.f.f.f.f.f.f.f.f.f.f.f.f.f.f.V.! &.7.8.8.r.4.S 4.x B.f.V.f.V.f.f.d.d.f.c.f.h.f.f.h.d.f.f.f.f.f.f.",
"v.i.d.f.f.f.f.f.f.f.h.{ v _ f.f.f.f.f.d.d.d.d.f.f.f.f.f.f.f.f.F.{ 4.8.r.8.4.r.4./ m.f.f.f.f.f.f.n.v.V.u.d.f.f.f.f.h.h.i.p.f.f.f.",
"f.f.f.f.f.f.R U t t y.d 4.r f.f.f.f.d.p.p.d.$.f.f.f.f.f.f.f.d.f.s.J t.8.r.r.r.7.L l p.h.f.f.f.f.f.d.f.f.f.f.h.h.f.d.d.! E f.[ f.",
"f.f.f.f.s.^ K n 8.4.w T : _ f.f.f.f.f.f.d.d.d.f.f.f.f.f.f.f.B.d.p.h 7.r.5.r.7.S W y.d.f.f.f.V.p.f.f.h.f.f.f.f.d.V.i.` W W ~ ;.v.",
"f.f.f.d.E K 8.7.8.4.s N d y.f.f.f.d.h.f.f.f.f.d.f.f.f.f.f.f.B.B.M.G r.7.r.5.r.4.t W d.f.f.f.f.f.f.f.h.d.h.f.h.h.V.` m.' m.>.' v.",
"f.f.f.c * b 4.7.4.; * 4.4.@ d.f.f.f.d.h.d.f.p.~ y.y.p.f.f.f.f.V.s.f 5.4.4.5.5.S k V.h.h.f.f.f.h.f.f.f.f.h.f.d.h.V.c.< S.$.:.O.@.",
"h.f.w S 6.Z S Z C n * n n * Y } f.f.f.f.h.1 ! N.> m., f.f.f.V.f.f.' h ) ) 5.4...b.f.f.f.f.f.f.f.d.p.d.p.d.d.h.h.f.` :.=.+.o.3 4 ",
"f.y.@ S 4.6.8.Z 7.4.n n n 6.6.r f.f.h.f.h.> s.i.] V.: f.f.f.d.h.f.f.s.f.V./ ( N.f.f.f.f.f.V.f.f.h.d.h.d.h.h.d.h.f.:.:.O.+.X.:.! ",
"h.y.. * V L 4.4.7.4.m m M L m X f.f.f.f.d._ ` 8 b.c.: p.f.f.f.f.f.h.h.h.h.h.h.h.f.f.f.d.f.f.V.f.f.f.f.h.h.f.h.h.f.f.n.n.n.n.B.n.",
"h.} r < < % n M Z Z A & @ $ e ] f.f.f.f.] ` 8 #.$.o.  #.f.f.f.f.V.G.A.F.h.L.l.h.h.f.h.h.V.V.f.V.f.h.d.h.J.Z.Z.h.f.f.f.V.f.f.f.V.",
"p.D 6.D ' e 4.5.Z b * t u._ i.d.d.f.f.f._ u.] #.+.1 p.` f.f.f.f.f.j.I.h.l.F.h.f.h.f.d.V.V.V.f.V.f.f.H.F.A.G.L.l.h.V.f.V.f.V.V.f.",
"f.t d l i.X N m # @ e _ ( s ^ d.f.d.h.f.u.6 $.+.o.o.Z.5 d.d.f.f.f.f.h.f.f.f.f.f.f.V.h.V.V.V.V.V.d.h.h.H.h.h.G.h.f.f.V.Z.Z.f.V.h.",
"f.y._ [ d._ T 2 7 ] i._ m A y d.f.h.f.f.f.u.u.c.$.#.$.c.f.d.f.f.d.h.f.f.f.f.f.h.f.V.V.V.V.h.V.f.h.f.h.h.h.f.f.f.f.f.V.Z.Z.C.h.h.",
"f.f.f.f.f.f.f.f.f.Q ] i.: . 5 f.d.f.f.f.h.d.h.f.B.$.$.V.f.d.f.f.d.h.f.f.h.f.f.h.f.f.f.V.V.h.f.h.f.f.h.d.f.f.f.f.f.V.f.V.Z.V.f.V.",
"f.f.f.f.f.f.d.f.s.W 5 f.p.p.s.f.f.f.d.h.f.d.f.f.f.f.h.f.h.f.d.h.h.h.f.h.f.f.f.f.h.V.h.f.V.V.f.d.d.h.f.h.f.d.f.f.f.B.n.f.f.V.V.Z.",
"g.f.f.f.f.f.y.s.f.f.y.f.f.d.f.f.h.h.h.F.l.h.h.f.f.f.f.f.d.h.h.d.h.d.f.f.f.f.f.f.f.f.f.V.h.f.f.h.h.f.d.p.f.n.d.f.f.f.f.f.C.V.f.f.",
"f.f.f.f.f.p.E z p.p.2 k [ T s.f.f.G.J.F.j.K.j.f.d.h.d.d.h.f.h.h.h.f.f.h.b.d.f.f.d.h.h.h.V.h.f.f.y.d.W 2 ` ` i.f.f.f.d.V.h.V.h.f.",
"f.f.f.p.Q z y - y j f * a f Q B.f.f.H.A.j.h.f.f.h.f.h.h.B.d.d.h.f.f.f.f.b.d.b.b.h.f.f.d.f.f.f.] a z = * = a a p.d.f.h.V.V.f.f.V.",
"f.h.f.] Q - A L m ; L L Z Z i i.f.f.f.f.f.f.f.f.h.f.f.i.B.B.V.h.h.f.f.f.f.V.V.V.h.f.f.V.f.f.d.W m * V L L M g ~ f.V.f.V.V.V.F.V.",
"k.j.f.y.p S 7.7.7.7.7.7.7.6.c W f.f.f.f.f.f.f.f.d.h.f.p.B.j.Q.d.f.f.f.d.V.f.V.V.h.h.h.h.B.i.! f 6.7.7.5.7.5.F *.p.V.V.V.Z.K.F.F.",
"j.f.f.s.4 Z 6.7.7.7.4.L 7.6.v p.f.f.f.V.h.f.f.f.d.h.d.f.d.k.%XV.h.h.d.d.B.V.B.V.j.j.c.d.p.k d S 5.7.7.7.7.7.H ` d.f.V.V.B.Z.F.A.",
"h.f.f.a.u Z 7.7.6.n C 6.7.7.G 4 f.f.f.f.h.f.f.f.f.f.h.h.h.k.8Xf.d.f.d.d.B.V.Z.Z.V.f.c.` $ * Z 7.7.7.5.7.7.7.K < p.V.f.f.V.V.V.V.",
"f.f.f.f.a.) v D 7.4.4.4.8.7.v p.f.f.f.f.Z.f.h.f.f.p.d.f.h.G.8XC.B.b.u.d.V.V.V.F.V.S.=.& * 4.7.4.5.7.7.7.7.7.G [ f.f.f.h.f.V.V.V.",
"g.f.f.f.f.f.f.{ 7.7.7.7.7.7.L l s.f.p.f.f.! j.z.f.d.f.f.f.j.E.y.y.y.y.f.V.Z.Z.V.B.Q B M 4.7.4.Z 6.8.7.7.7.7.4.N i.f.f.f.V.h.V.V.",
"f.f.f.f.f.f.f.| 6.7.7.7.4.5.7.L T [ % k ` -...k.k.h.h.h.U 9 Y.T.T.Y.U.9 U d.Z.9Xg. .L 4.7.7.7.7.7.7.7.7.5.7.7.7.e p.f.f.V.V.f.V.",
"i.d.f.i.f.f.f.s.Y 6.7.7.7.7.7.5.- g S L c * f a.z.z.y.| 5XwX6X+X X[..X.X3.w x.0XE._ s 7.7.7.7.7.8.7.4.4.C 7.7.8.b ,.G.f.f.f.f.Z.",
"f.f.n.f.f.f.f.f.' m 7.7.7.7.7.7.4.5.5.5.4.Z M { j.j.q 7X0X'./._._._.^.^.*X Xq %Xd.j 6.8.8.7.7.7.7.4.5.5.5.5.7.r.| >.f.f.f.f.h.Z.",
"f.f.f.f.h.f.d.y.r S 7.7.7.7.7.7.7.r.7.7.5.6.6.r p.Y yXyX#X0X:X=X=X=X*X}.(.-X3.w f.p.d 7.7.7.8.7.5.4.5.4.5.8.7.7.a s.h.f.c.h.f.f.",
"f.f.f.f.f.f.s.f._ P 8.7.8.7.7.7.7.7.7.8.5.7.I [ y.2XiX$XtXpXrX;X=X=X=X&X[.(.|.o W l L 7.7.7.7.8.7.6.4.6.7.7.7.7.V ! f.p.f.V.f.V.",
"f.f.f.f.g.f.f.g.{ K 6.6.P 6.7.r %.B 8.%.f 4.L t ,.yX@X].iXpXiXpXiX+X&X=X.X'.:X0.> H 7.7.8.7.8.7.7.7.8.8.7.C 5.7.I [ f.f.f.V.f.V.",
"f.f.f.f.f.f.f.h.h.~ c ..} } ) d.f.i./ s.s.) ~ d.,.yX].}.<XqXeXOX*X+X=X=X*X_.oX0.: d 6.7.7.7.7.7.7.7.7.8.6.4.5.7.h n.f.f.f.f.Z.V.",
"f.a._ f.f.f.f.f.f.f.s.f.f.f.f.f.f.f.d.f.f.f.h.j.Y :X(.}.=X>X6X*X>X>X;X;X}._.oX0.  &.t.t.8.7.7.7.7.7.7.7.7.7.7.7.K W f.h.V.V.f.j.",
"i.! ~ i.T f.f.h.h.G.G.l.F.l.l.h.f.h.l.W.W.W.W.x.Y -X(.}.=X>X6X>XeXuX+X*X{._.oX0. .3X7X7X4X9.7.7.7.8.7.7.8.7.7.L ~ p.f.f.f.d.V.B.",
"*.=.T ! 7 y.f.d.h.h.G.h.F.P.F.f.h.d.h.f.h.h.d.h.Y  X).(.&X>XwX<X1X<X`.{.{.w.[.^.5 ~ # 7.8.5.7.8.8.7.7.8.8.7.8.7.B } A.f.d.] B.V.",
"W m.A.v.' , _ h.f.f.h.f.h.h.f.f.d.h.f.f.d.h.f.f.T 2.>X'.*X;X@X].#X^.`.{.).q.@X+ ] B 6.7.7.7.7.7.7.7.7.8.7.7.8.7.4.} A.f.f.V.V.V.",
"X.c.c.=.7 m.E f.d.h.f.h.f.d.f.f.f.f.f.f.V.p.] f.y.0 *XXX[.*X.X{.`.{.`.`.#XwX~.o y.E L 7.7.7.5.5.7.7.8.7.8.7.8.7.G T f.f.f.V.f.` ",
",.#.+.4 :.:.! f.h.f.f.h.d.h.f.f.f.f.V.f.f.s.d.f.f.j 2.|.XX`._.(./././.].,X(.0 W f.t K 7.7.7.7.5.8.7.7.7.8.7.7.7.K -.Z.f.f.V.V.` ",
">.` +.#.6 o.7 d.d.f.f.f.h.d.f.f.f.f.f.f.f.g.f.f.z.R.. 2. X-X(.0.0.0.0XqX).<.: O.l.,.g 7.7.7.6.5.7.7.7.7.8.7.7.8.5.h D.f.V.f.h.E ",
"O.+.$.:.6 +.y.f.f.f.h.f.f.f.f.f.f.f.f.d.f.f.f.f.E.!._ : 0 1.oXoXoXoXoX<.0 4 :.h.D.j.m...J | { 6.7.4.L 4.7.7.7.7.6.' V.f.V.f.f.M.",
"n.p.f.V.p.y.d.f.f.f.f.f.f.f.f.f.v.F.8 f.f.f.f.h.z.E.p.y.5 3 O O O O O 1 > i.f.h.j.A.Z.j.s.j.V./ 6.7.4.7.8.7.7.7.I c.f.f.f.V.f.h.",
"V.f.f.f.f.f.f.f.d.f.f.f.f.f.f.i.3 ! *.[ i.v.! V.B.B.c.V.d.b.8 +.6 6 3 y n # T f.f.j.j.f.V.h.d.s.H 7.7.8.7.7.7.L | F.h.f.f.f.V.Z.",
"f.f.f.f.f.f.d.f.f.f.f.f.f._ >.a = % * a z i x D.f.V.B.V.f.f.f.d.d.5 s ; Z 4.c p.f.f.h.p.d.p.d.h.s.P 7.7.7.8.7.7.J S.h.f.f.h.Z.f.",
"f.f.f.p.y.d.i.f.f.f.h.j.l.< % * K S S M * * l L.V.f.V.f.V.V.f.f.s.m 6.Z Z b % ] f.f.f.f.d.d.f.f.s.L 8.7.8.7.8.8.F ' p.A.F.F.H.f.",
"f.f.f.f.f.f.d.f.f.f.h.C.N.* ; 4.7.7.7.7.S K l W h.f.V.V.V.f.V.f.a.Z ; 4.m % , i.d.f.f.f.d.h.d.z.( V 7.7.7.8.7.S ~ s.h.F.P.K.K.K.",
"f.f.f.f.f.d.h.d.f.] 7 2 & Z 7.7.7.8.7.7.7.K l m.V.f.f.f.V.f.V.f.s.j @ % , 8 p.f.f.f.f.f.f.f.f.h.f.v 5.7.7.7.7.6.y N.f.F.A.j.A.A.",
"f.f.d.f.f.f.h.f.f.a.= * * 4.7.7.7.7.8.8.5.6.l M.V.f.V.V.V.V.f.V.f.f.] 3 8 f.E ' f.d.f.d.f.f.h.f.p.i 6.L g 7.7.K a.Z.f.f.f.f.V.Z.",
"d.p.p.f.f.f.f.d.E a * n 4.7.4.K 8.7.7.7.7.7.H p.f.V.f.V.V.V.h.f.f.f.f.f.f.f.j i.f.f.f.f.f.f.f.f.f.i.) | [ H J | f.f.f.V.f.f.f.Z.",
"$.u.d.f.f.f.h.p.$ * 4.4.7.7.6.4.7.7.7.7.7.7.L k f.f.V.V.f.V.V.f.f.f.f.f.f.f.s.f.f.f.f.f.f.f.f.f.f.f.f.V.f.s.i.f.f.f.h.f.Z.Z.V.V.",
"f.f.f.f.f.f.f.d.y./ 6.7.7.7.7.7.7.7.7.4.4.4.I a.f.f.V.f.V.f.f.V.h.B.c.b.d.f.f.f.f.f.f.f.f.f.f.f.f.f.f.f.f.f.f.h.f.f.f.h.h.h.f.h.",
"f.f.f.f.f.f.f.f.d.^ V 7.7.7.7.7.5.S L 4.7.4.N ;.f.f.f.V.V.f.V.f.B.p.c.d.d.f.f.V.f.f.d.' j _ f.f.f.f.f.V.f.h.f.d.f.f.f.f.p.h.f.p.",
"f.f.f.f.f.f.b.f.] h r.7.7.7.7.7.4.Z L 6.8.m a.f.f.f.V.V.f.V.B.h.h.f.f.f.f.f.f.f.f.h.R 4.6.K ' f.d.f.f.V.h.d.h.d.f.h.d.f.p.B.p.n.",
"f.f.f.f.d.f.b.d.f.s.V 8.7.8.7.8.5.L L 7.7.m ( f.h.f.Z.V.V.f.h.f.f.f.f.f.f.f.V.d.d.T m 7.4.M % i.h.h.d.f.d.j y } y.h.f.f.V.d.d.V.",
"f.f.f.f.f.f.f.d.] x K 7.7.7.7.7.7.7.7.7.5.m ' s.h.K.G.D.A.V.d.h.f.f.f.f.f.h.h.f.R K L Z ; ; - T h.d.f.f.p.s 6.K c j R f.f.f.f.V.",
"f.f.f.f.f.f.f.f.i.f 7.5.L N 7.7.6.6.7.7.8.4.< [ f.H.Z.G.G.V.V.f.f.V.f.f.f.f.d.h.  6.7.L @ & r ] f.f.d.f.R 6.8.7.4.N L , i.h.f.h.",
"f.f.f.f.f.f.f.f.=.G 6.J ..s.c K h ( h v ( F { f.f.f.V.h.V.f.V.V.V.h.f.f.h.f.f.f.. * * & < 3 5 d.f.V.f.] s 4.4.4.m Z 5.m ~ f.f.h.",
"f.f.f.f.f.f.f.f.V.a.^ i.s.f.C.s.a.f.i.i.f.i.f.h.f.f.f.V.f.V.f.f.f.V.f.d.d.h.f.h.] 1 1 4 u.V.f.f.f.f.h.5 m L b n ; L Z b e c.d.h.",
"h.h.h.G.F.Z.f.f.f.f.f.f.f.f.f.f.f.f.f.f.f.f.f.f.V.f.V.V.V.f.V.f.B.d.=.4 A.Z.Z.h.h.f.f.f.f.f.f.f.h.f.h.d M A ; 4.7.n * n @ O.n.f.",
"h.J.K.P.G.J.f.f.f.f.f.f.f.f.f.f.g.f.f.h.j.Z.f.f.f.V.f.f.f.V.f.d.l k = = -.%.>.V.d.h.f.f.f.f.f.h.d.h.E Z C S 4.r.7.Z @ - u @.s.f.",
"h.F.h.V.h.V.f.f.f.f.f.f.:.B.f.f.f.f.f.H.G.A.G.f.f.V.f.V.f.V.V.p - * * A - * f M.h.d.f.f.f.f.f.f.h.d.X N C 4.* ; 6.A   7.r.X ] h.",
"h.d.f.V.f.f.f.f.f.f.f.f.n.n.] p.f.f.f.G.A.G.h.f.f.f.V.f.V.f.m.x v 4.4.7.6.S h ;.d.f.f.f.f.f.f.f.f.f.8 u - @ X % * $ s 4.b @ ` f.",
"f.f.f.f.f.V.c.p.f.f.f.f.f.f.d.f.f.f.f.f.f.f.f.f.f.V.f.V.V.V.f.m.) 6.7.7.7.A B ! f.f.V.f.f.n.V.f.f.f.d.y.! 7 7 1 1 O.=.i < 3 i.h.",
"f.f.f.f.f.f.f.f.f.f.f.f.f.h.f.f.f.f.f.f.h.f.f.V.V.f.V.f.V.V.v.f e.8.7.4.4.7.A p *.A.f.p.n.c.n.d.f.f.f.f.f.f.f.n.n.p.f.s.v.V.f.f.",
"f.V.f.f.f.f.f.f.f.j.h.f.f.h.f.f.f.f.f.V.f.V.V.V.B.:.V.f.V.V.V.W ; 6.7.L 5.7.5.-.[ V.f.f.n.V.i.f.d.h.f.f.f.f.f.f.f.f.f.f.f.f.f.f.",
"M.M.V.B.M.M.M.M.M.M.M.M.M.M.M.M.S.M.M.M.M.M.S.M.M.v.M.M.M.M.;.i K e.e.e.e.r.&.l M.M.M.M.M.M.M.M.f.M.M.d.M.M.M.M.M.M.M.M.M.M.M.C."
};
