/* XPM */
static char *out[] = {
/* columns rows colors chars-per-pixel */
"64 64 221 2 ",
"   c #3B231D",
".  c #2D1F21",
"X  c #2F2223",
"o  c #2D2B2D",
"O  c #332424",
"+  c #372827",
"@  c #3A2825",
"#  c #3D2B2B",
"$  c #2E352C",
"%  c #2D392D",
"&  c #3F362F",
"*  c #312F31",
"=  c #3D2F31",
"-  c #2F3231",
";  c #323435",
":  c #3B3433",
">  c #393C34",
",  c #363739",
"<  c #39373A",
"1  c #363939",
"2  c #3C3B3C",
"3  c #462722",
"4  c #442B24",
"5  c #482C25",
"6  c #442D2B",
"7  c #45332C",
"8  c #4B332C",
"9  c #563529",
"0  c #54352B",
"q  c #5C3B2D",
"w  c #443331",
"e  c #4C3632",
"r  c #433833",
"t  c #4C3A36",
"y  c #443D3A",
"u  c #4A3E3A",
"i  c #553B35",
"p  c #573B37",
"a  c #5B3D35",
"s  c #533E39",
"d  c #633D2C",
"f  c #6A3F2D",
"g  c #603F36",
"h  c #623F38",
"j  c #34492E",
"k  c #3C4435",
"l  c #344836",
"z  c #3D4B34",
"x  c #3C443A",
"c  c #3D4B3B",
"v  c #3B5333",
"b  c #3C5B35",
"n  c #36543D",
"m  c #3D533B",
"M  c #3C5C3D",
"N  c #3D643D",
"B  c #3D693F",
"V  c #414333",
"C  c #444C32",
"Z  c #4F4B35",
"A  c #4B433A",
"S  c #48453A",
"D  c #434C3C",
"F  c #4B4B3B",
"G  c #554436",
"H  c #5C4436",
"J  c #584B36",
"K  c #544239",
"L  c #5A443A",
"P  c #534A3B",
"I  c #5C4B3A",
"U  c #475535",
"Y  c #4A5235",
"T  c #415C37",
"R  c #42543C",
"E  c #4A543C",
"W  c #445B3D",
"Q  c #4C5C3C",
"!  c #565737",
"~  c #52543B",
"^  c #5B533B",
"/  c #555B39",
"(  c #5A5B3C",
")  c #64402E",
"_  c #6C412E",
"`  c #634236",
"'  c #6B4635",
"]  c #614936",
"[  c #644439",
"{  c #6A4639",
"}  c #644C3B",
"|  c #6D4B3A",
" . c #724531",
".. c #734935",
"X. c #7C4C34",
"o. c #734C3A",
"O. c #794E3B",
"+. c #645437",
"@. c #63533C",
"#. c #6B533C",
"$. c #635D3D",
"%. c #6D5A3D",
"&. c #7F5036",
"*. c #74533D",
"=. c #7C533C",
"-. c #735C3E",
";. c #7D5A3F",
":. c #426637",
">. c #43633B",
",. c #4B643C",
"<. c #456C3D",
"1. c #4B6C3B",
"2. c #53643D",
"3. c #5B663D",
"4. c #55693D",
"5. c #47733C",
"6. c #4B733D",
"7. c #4D7B3E",
"8. c #52733D",
"9. c #527C3E",
"0. c #68653E",
"q. c #70633D",
"w. c #3D3D40",
"e. c #423F41",
"r. c #385742",
"t. c #376544",
"y. c #3B6341",
"u. c #3C6B42",
"i. c #3B7044",
"p. c #444344",
"a. c #454C45",
"s. c #484847",
"d. c #494749",
"f. c #494A49",
"g. c #544A48",
"h. c #4A5646",
"j. c #425D42",
"k. c #4C4E50",
"l. c #545455",
"z. c #585757",
"x. c #575758",
"c. c #595759",
"v. c #57595A",
"b. c #5B5B5C",
"n. c #644E42",
"m. c #6C5E41",
"M. c #745843",
"N. c #655650",
"B. c #625B59",
"V. c #735F54",
"C. c #436440",
"Z. c #4A6442",
"A. c #446944",
"S. c #4A6B41",
"D. c #536842",
"F. c #457444",
"G. c #4B7541",
"H. c #467A44",
"J. c #4B7B42",
"K. c #487B48",
"L. c #517440",
"P. c #517C41",
"I. c #567844",
"U. c #5E635E",
"Y. c #507950",
"T. c #736240",
"R. c #617441",
"E. c #66615F",
"W. c #7B655A",
"Q. c #5D5D60",
"!. c #636363",
"~. c #686866",
"^. c #6B6B6B",
"/. c #776B65",
"(. c #7A6D65",
"). c #7E7067",
"_. c #70706F",
"`. c #737273",
"'. c #814F35",
"]. c #835136",
"[. c #8B5637",
"{. c #8E5837",
"}. c #82563D",
"|. c #8A563A",
" X c #855A3E",
".X c #8A5C3F",
"XX c #915B3A",
"oX c #855B40",
"OX c #8B5D40",
"+X c #8A6041",
"@X c #866E5F",
"#X c #83746A",
"$X c #4D823E",
"%X c #4F8A3E",
"&X c #51833F",
"*X c #528B3F",
"=X c #56913F",
"-X c #4D8443",
";X c #4F8944",
":X c #528441",
">X c #598342",
",X c #548D43",
"<X c #5A8B44",
"1X c #56844E",
"2X c #58874E",
"3X c #5B8C4E",
"4X c #569244",
"5X c #599443",
"6X c #5D9A45",
"7X c #599449",
"8X c #5C9848",
"9X c #5C8C50",
"0X c #628444",
"qX c #619D45",
"wX c #63944A",
"eX c #629E48",
"rX c #64A246",
"tX c #68A747",
"yX c #65A248",
"uX c #6AAA4A",
"iX c #71B14C",
/* pixels */
"9X,X-X4X4X,X,X4X4X,X=X4X4X=X,X4X4X4X;X4X4X;X4X4X,X4X,X4X3X,X9.a.g.M.M.=. X X}..Xm.<X5X,X7X,X7X;X4X2X4X;X;X7X2X4X4X;X4X,X4X4X4X,X",
"1X-XK.4X=X4X4X4X=X4X=X*X1.5.,X4X4X=X=X4X=X;X4X4X4X4X4X,XG.S.W U.!.~.~.u n.{ =. X^ P.4X4X4X4X4X4X;X-X4XK.;X4X4X4X4X7X=X4X4X,X4X4X",
"3X4X,X4X5X4X&X&X$X5.%X4.*.#.7.,X4X4X=X;X;X-X;X%X4X=X4Xu.~.`.k.!.^.~._.s.`.!.L }.}.P -X4X4X4X4X4X4X;X4X;X4X4X4X4X4X4X4X$Xb %X%X%X",
"3X4X4X4X=X*X! J +.' Y 6.Z U %X4X=X,X,X4X;X4X;X;X=X;Xv U.~.Q.d.d.B.b.f.< B.~.!.u @.,.$X,X4X4X4X-X4X4X4X4X4X4X4X4X4X4X7.B :.5.<.7.",
"3X4X5X4X*XZ }. X.X.X| C V <.4X4X,X4X4X4X4X4X=X=X4X>.p.d.l.s.: X # # O + s.l.l.p.r.>.:X4X4X4X4X4X4X4X4X4X7X4X4X4X4X4Xb N 7.:.9.5.",
"7X4X5X&XT a  X.X.X=.g ..}.H 7.=X=X4X4X4X4X4X4X$XJ.U.^.e.o . 9 9  .f ) 5 + * p.^.`.Z.:X4X4X4X4X4X4X4X4X4X4X4X4X7X4X;Xb 7.,XF.6.N ",
"9X4X%X! =...| O.' g a ' ..a Y 7.;X4X4X4X=X%X1.v c Q.c.s.6   X.f |.'.X.X.9 4 d.Q.^.h.;X4X4X7X4X4X4X;X4X;X4X4X4X4X4X5.N 7.i.t.M n ",
"9X4Xz ' .XO. X=...=.g a a *.=.+.%X=X4X4X4XJ.5.j T e.p.: ..  ]. .XX[. .{.d _ : s.k.t.7X4X4X4X4X4X4X;X4X;X4X4X4X4X4XH.-XB i.n B H.",
"3X=Xk i ' }..X=.oX.X=.{ ' =.=.a 5.4X,X4X4X7.7.b c x.; p.#X!.#X(.#X)./.#X/.).d.< l.h.,X4X4X7X;X4X4X4X4X4X4X4X4X7X4X4X-XF.F.i.;X-X",
"3X=Xv : : i ' g o.O.*.a e e e k $X4X4X4X4Xj N F.2 !.d.< l.c.c.c.l.b.b.c.x.c.p.f.~.a.:X4X4X7X7X4X4X4X4X4X6X6X4X4X4X4X4X4X7X4X4X4X",
"3X8.#.H m n H  X=.` { G m N >.;X,X=X4X4X4Xj H.-X1 Q.s.@ 0 O g e a a e g 6 8 8 p.Q.r.,X4X7X4X4X;X4X4X4X6X6XiXrXuX4X4X4X4X4X7X7X4X",
"3XU H ] 8.:.H =.{ i e R 7./ ,.*X,X4X4X,X,Xl i.-X1 v.p.5  .3 |._ oX}. .XX_ f q y c.p.,X4X;X4X7X7X4X4X8XuX6X6XrX6X4X4X4X4X7X4X4X4X",
"3X7.M >.%X7.c & > m M $X$.}.] &X=X4X,X4X;X7.i.i.; 2 - 8  .  X.0 E.B.o.X.d X.) o 2 o :X4X7X7X7X4X4X4X7X7X4X4X4X4X4X4X4X4X4X4X4X4X",
"3X4X4X4X4X=X,XF.H.7.$X*XY 7 k *X4X4X4X4X4X4X4X,X2 _.f.4 _ 3 |.e w.k.p X.d {.d , _.k.,X4X4X4X4X7X4X4X4X4X4X4X4X4X4X4X4X7X4X4X4X7X",
"9X4X4X4X4X4X=X4X,X,.z *XJ.5.J.4X,X4X4X4X4X4X4X4X, x.d.4 X.3 ..e.= : d.h d [.d 2 c.f.,X4X4X4X7X4X4X4X4X4X4X4X4X4X4X7X;X;X4X4X4X;X",
"9X4X4X4X4X,X,X*X*X;XH.,X=X=X4X*X=X4X=X5X=X4X4X4Xo p.p.8 |.3 ` 2 0 6 k.h d [.0 p.z.D ,X4X4X4X4X4X4X4X4X4X4X4X;X4X4X;X-X7X4X4X7X4X",
"2X4X4X4X4X4X-X7.&X=XJ.M -X&X,X*X4X5XrX6XqX=XqX*Xb e.* 8 ].3 |.u e.S r  .d {.d o 2 m ,X4X4X4X4X4X4X4X;XM J.4X-X,X=X4X4X4X4X4X4X7X",
"3X4X,X4X;X>.W y E S.R t F W E ,X5X=XyXrX5XqX=X5X2 ^.p.6 X.3 |.d a q ' ].f [.) 2 ^.f.,X4X4X4X4X5X<.<.W y A >.E &X=X4X4X4X4X7X4X4X",
"3X4X4X;Xj.i i H H i i H H i A P.4X*X5X4X4X5X5X,X, Q.d.8 |.3 ].0 {..XX.[.d f d p.!.f.,X4X4X4X4X5XS p G a a a K S.,X4X4X4X7X4X4X7X",
"3X8X4X-X>.i O..X}.o.=. X XO.] W ,X4X4X4X,X4X,X5X, b.d.y V.g.W.N.@XW.W.@XN.N.g.y z.a.*X4X4X-X-X>.} O.=..X}.O.M.D :X4X4X4X4X8X8X7X",
"wX4X4X4XJ.Q =..X.X X.X}.}.}.$.:X,X5X5X,X4X4X4X,XW 1 * 2 c.c.b.b.c.b.b.b.b.z.p.o ; R ,X=X4X-XR i =..X|.oXOXOX-.P.,X4X4X4X4X7XeX7X",
"3X4X4X<Xm K }..X X=.....}..X*.m ,X5X,X5X4X*X5X,X1 _.l.# i X 8 # a 0 e 8 O 6 7 d._.h.H.J.S.A [ }.}..X.X.X|.OXM.S F.4X4X4X4X7X,X5X",
"3X4X4X4XG.3.#.+.&.=.=.=..X.X0.&X4X=X,X=X=X,X=X,X- x.a.6 ].  O.f |.].q }.0 ' q p.U.a.*Xk t a }..X}..X.X.XoX.X*.9.,X,X,X5X4X4X5X4X",
"3X4X4X4X4X,X5.1.%. X X X X.X*.C 9.=X=X5X=X*X&X5X- p.<   8 O 8 @ 8 3 @ 8 + 5 O , d.> D s { =.|.=.o..X.XOXOXOX}.^ G.4X4X4X4X7X4X4X",
"3X,X4X4X4X4X,X7.-..X X.X.X=..X=.4.,X>.j.J.-XL.5X7.$ % B B B B >.B B <.B B B B j $ r a ..oXoXOXoXOXoXOXOXOXOX.XOX#.J.5X,X5X5X,X5X",
"2X,X4X;X,X=X4X=XR.=..X.X.X}..X.X} / @.[ E ~ I I.=X=X5X*X5X,X,X,X,X*X,X,X,X=X5X*X,X6.Z }..XOXOXOXOXOX|.oXO.|.OXoX| E qX5X5X,X4X4X",
"2X-X,X-X*X5X5X*X:Xq. X.X.X.X.X.Xo.}.}.oXo.a a L 6.=X=X=X4X4X,X4X5X4X=X=XuX=XqX=X*X5.} .X.X.XOXOX.X.X' ..oXoXOXOXoXa.S.5X4X4X4X4X",
"3X=X4X4X4X=X4X,X,.G }..XOX.X.X.X.X.X.X.X.X=.}.] 7.=X*X5X,X:X-X,X,X=X4X4XqXqXqX5X,X$X/  X.XoX.XXX.X}..X}..XOXOXOXT.:X=X*X:X,X4X4X",
"3X=X4X4X*X=X,XJ.J.@.oX.X.XOX.X.XOX.XOX.XOX X*.4.&X4X,X5X,X,X,XJ.2X4X4X4X5X4X,X=X,X6.F }.OXXX+XXX.X=.}...OX.XOXOX*.,.4XJ.-X4X4X4X",
"3X4X=X4X=X5X=X5X<X$. X.X.X*..X}.n.#.OX*.@.oXOX} &X=X=X5X=X5X=X5X,X4X4X4X4X4X*X5X7.F =..XOXOXOXOXOXOXOXoX.XoX}.OX}.( =X,X4X4X3X4X",
"3X=X=X4X5X5X=X5X6X1.G *.0.:X@.2.5X&X! 2.,X3.^ :X,X5X=X=X,X5X,X,X4X4X4X4X4X4X5X4X,XE o.OXOXOXOXOXOXOXOX.X.Xo.}.OXM.:X4X5X,X4X4X4X",
"3X=X5.=X*X=X=X=X=X*X1.>X:X4X,X,X5X=X,X:X,X,X:X,X5X4X4X,X=X=X5X5X4X4X4X4X4X4X5X=XS.L }.OXOXOXOXOXOXOXOX.X.X+XOX+X*.E ,X4X4X4X4X4X",
"3X5.>X>.$X%X=X5X=X5X=X5X6X4X5X5X5X5X4X4X4X4X4X4X4X5X=X9.9.*X=X4X4X4X5X5X5X4X4X4X,X2.}..X.X.XOXOXOX+X+XOXOXOXOXOX-.9.*X5X=X4X4X4X",
"Z.A.<Xv 1.v 4X=X=X5XtX6XrX6XrX5X4X,X4X4X4X4X4X4X4X,X2.] ] ! $X5X4X4X,X5X,X5X4X4X,XJ.I }. XOXOXOXOXOX+X.XOXOXOXOX%.I.6X=X=X-X,X;X",
"R P.<X,X*Xv ,X=X=X5X4X4X5X5X8X4X4X,X,X5X4X,X4X4X5X:XH .XO.}.3.*X,X,X5X5X=X5X,X=X,X,.{ .X.XOXOXOXOXOXOXOXOXOXOX.X.X^ uX5X=X*X-X;X",
"R G.-X:XJ.v b *X=X4X4X4X4X4X7X7X7X4X4X4X4X4X:X,X=X5X4.O. X X#.&X5X5X,X=X5X5X-X:X,X1.} .X.XOX.X}.OXOXOXOXOXOX.XOX}./ ,X,X4X4X=X4X",
"2XB i.M n <X:.4X5X4X4X4X4X4X7X7X8X4X4X4X,X4X,X4X4X*X9.H }.}.7 -X5X=X5X5X=X5X<X&X5X,XH  X.X.X X=.OXOXOXOX+XOX.X.X*.F ,X,X4X4X4X4X",
"Y.<.u.N N H.M ,X4X4X4X4X4X7X7X7X4X,X4X4X4X4X*X=X=X5X4X1.P n A.,X,X4X5X,X,X=X=X=X,X5.P }..X.X.X+XOXOXOXOXOXOXOXOX.X} <X8X4X4X5X4X",
"t.t.i.i.y.t.t.;X;X4X4X4X4X7X8X4X4X4X4X,X5X4X=X5X4X=X4X4X;X4X4X4X4X4X5X4X5X=X5X=X*X5XP.P ;.-.0. XXX X.XO.OXOX.XOX.X$.-X5X4X5X4X5X",
"1XH.-X,XH.H.;X4X4X4X4X4X4X4X,X,X:X5X-X4X=X4X4X=X*X;X5X:X4X4X4X;X,X4X,X4X=X5X*X4X4X4X4X:X0X>X4XP.M..X=.}..XOXOXOX.X4.5X4X4X4X4X4X",
"3X4X=X4X4X4X4X=X=X4X4X,X4X*X4X=X-X*XJ.:X,X,XG.,X4Xi.-XH.4X4X7X4X4X4X,X:XC 7 :.=X5X4X4X4X4X4X4X=X@. XOXOXOXOXOXXX%.:X=X5X5X4X5X4X",
"3X4X4X4X%X4X4X4X4X4X4X4X=X,X7.F.F S y S W E W *X8X;X;X7X4X4X4X;X4X4XQ Z { =.^ &X5X4X4X*X4X4X,X4X<Xm..X.XOXOXOXOX-.>X6X4X4X=X5X4X",
"9X4X4X;X;X4X;X;X=X4X4X4X=X7.k t i a a p s a A ,X8X4X4X7X4X7X;X4X4X:.[ *.a }.a j.4X4X4X4X;Xi.4X7X,X~ .X.XOXOXOXOX.XP C.=X4X5X6X5X",
"3X4X4X4X;X4X;X=X4X4X=X5XwXR i h =. X.X.Xo.| P G.4X4X4X4X7X4X4X7X&XH =.o.o.` r y.4X4X4X4X4X4X4X4X<XI .XOX.XOXOXOX^ 7.4X5XrX6XtXrX",
"7X4X4X4X4X4X4X4X4X4X4X-Xh.a o.}.oXOX.X.XoXoXF J.;X4X4X4X4X7X4X4X,XC e H e c <.:X4X4X4X4X4X7X4X4X7X(  XOX.X.XOXOXI W 4XqXqX5X6XrX",
"7X4X4X4X4X4X4X4X4X:XD y i ' .X.XOXOXXXOXOX.X#.c 4X4X4X4X7X;X7X7X4X4XW l n H.&X:.4X4X7X4X4X4X4X4X,X2.| OX=.}..XOX0.4X5X4X5X5X4X5X",
"2X4X;X4X4X4X4X4X,X,.K a ' }..X X}.OX.X.X.X.Xm.-X4X4X;X7X4X4X4X4X4X4X4X,X,X4X2.C ,X4X4X4X7X4X4X4X4X,X( %.I.I *.*.,X4X4X7X4X4X4X4X",
"Y.;X;X4X4X4X6X4Xj.t [ O..X.X X X=..X.X.X.X.X*.F ;X4X7X4X4X7X7X4X4X4X4X4X4X4X%X,X4X4X4X4X4X4X7X4X4X8X,X,X5X<XL.:X4X4X4X4X6X4X4X5X",
"1X;X4X4X4X4X4X4X-XR }.OX.X.XOXOXOXOX.X.XoX.X.X^ ,X4X4X4X4X7X4X4X4X4X;X7X4X4X4X4X4X4X4X5X5X4X5X4X4X4X4X4X4X6X4X4X7X4X4X4X4X4X4X4X",
"7X4X4X4X4X4X4X4X%X-X[ .X.XOX.X.XoX}.}.}.}..X*.h.4X4X4X4X4X7X4X4X2X;X;X;X;X4X4X4X4X4X4X,X1.5.4X5X4X4X4X7X4X7X4X4X4X7X6X4X4X8X4X4X",
"7X4X4X4X4X4X;X;X;XQ *.OX.X.X.XOX.XO.}.OX.X X/ 9.5X4X4X4X7X4X7X4X4X4X4X4X4X4X4X7X4X7X4XY o.*.6.=X6X4X4X7X4X4X4X4X4X4X4X4X-X7X4X;X",
"3X4X4X4X4X4X;X;X4X7.-.OX.X.X.X.XoXO.O. X.X X3.,X5X5X5X8X4X4X4X4X4X7X4X4X4X7X4X4X7X-XC .X X;.G 1.4X4X4X4X4X:X4.8.4X4X4X4X4X-X4X;X",
"3X4X4X4X4X7X4X4X4X&XP OX.X.X.X+X.X.XoX.X.X;.~ -X=XqX4XuX4X4X4X4X7X4X4X4X4X5X4X4X:X/ o.o.{ h a : 4X4X4X4X7Xz *.*.U 5.4X5X4X4X5X4X",
"3X4X4X7X4X4X4X4XJ.c *.+X.X*..X.XOX X.X.X+X.X2.H.4XrXrX6XeX4X4X7X4X4X4X4X4X4X4X4X,.*..X}.i i i x 4X4X4X7X$XZ .XOX Xi 0 C -X4X4X5X",
"9X7X4X4X7X4X4X4XG.F  X}.*.,.$.;.;.$.%.*.( -./ :X5X4X6X7X7X4X7X4X4X4X4X4X4X5X4X4X,.[ { { r > c H.4X4X4X4XU o.oXoX&.` .X| ,.*X4X4X",
"3X4X4X4X4X4X4X4X4X>X@.D.9.,XP.0X2.:XG.>X&X8.-X4X4X4X7X4X4X7X4X4X4X4X4X4X4X4X4X4XJ.k > > C.;X;X4X4X7X4X;XJ }...=.[ { .X{ t F.4X=X",
"7X4X4X6X6X4X7X7X4X4X-X4X4X4X4X8X4X4X4X4X6X4X4X4X4X4X7X4X4X7X4X4X4X4X,XG.-XyX4X=X4X,X-X-X,X4X4X7X4X4X4X1.a O.{ h *.=.g h e l -X,X",
"7XrXtXtXrXrX6X4X4X4X4X4X4X4X4X4X4X4X4X4X4X6X4X4X7X7X4X7X4X4X4X4XJ.A.h.A D.wX6.4X4X4X4X4X7X4X4X4X4X5X,XJ o.{ o.}..X*.i a e r.J.5X",
"7XeXtX6X6X6X7X4X4X4X7X4X;X4X4X4X4X4X7X6X6XuX6X6X4X7X8X4X7X4X6X4Xa.s a a s u A C.5X4X4X4X4X7X4X7X7X7X5.o.a M.M.h .X}.6 { =.u J.4X",
"3X4X4X4X7X4X4X4X7X4X4X4X;XK.-X4X4X4X7X6XrX4X6X4X4X4X4X7X4X4X,Xr.I | ..oXM.o.[ D.5X4X4X4X4X4X4X4X4X4X7.y h { w p ` G t =.o.a m ,X",
"9X7X4X7X4X4X;X;X4X4X4X4X4X4X;X4X4X4X4X4X4X7X7X4X4X4X4X7X4X4X4X:XI.*.OXOXOXM.{ E -X4X=X4X4X4X4X4X4X4X4XK.R c c l x r.j.K e 2 A.4X",
"9X4X4X4X4X4X4X4X4X7X4X7X4X4X4X4X7X4X7X4X7X4X4X4X4X4X4X4X4X4X4XJ.} oXOXoX|.OXO.u G.8X4X4X;XH.,X,X4X4X4X4X4X,X-XF.F.F.:XJ.F.F.4X4X",
"7X4X4X7X4X4X4X4X4X4X4X4X7X4X4X7X4X4X7X4X4X7X7X4X4X-X4X4X4X5X,XJ.~ =.+X=.=.OXoX{ C.5X4X4X;X:X;X,X4X4X6X4X4X7X5X4X,X5X4X4X,X5X4X4X",
"9X4X6X4X6X8X4X4X4X7X4X7X4X4X7X4X4X7X7X4X4X4X4X4X7X-X;X4X4X4X,XR L }.OXOXOXOXOX{ 9.*X5X4X8X4X4X5X6X4X4X4X5X4X5X5X,X5X=X5X5X=X5X=X"
};
