/* XPM */
static char *out[] = {
/* columns rows colors chars-per-pixel */
"64 64 177 2 ",
"   c #37302F",
".  c #3A362F",
"X  c #392C31",
"o  c #2D3831",
"O  c #2F3D38",
"+  c #3D3331",
"@  c #3B3C35",
"#  c #3E3C3A",
"$  c #433433",
"%  c #4B3333",
"&  c #443C35",
"*  c #4C3934",
"=  c #453738",
"-  c #443D3C",
";  c #4C3D3A",
":  c #503634",
">  c #533936",
",  c #5C3D37",
"<  c #543C3A",
"1  c #5C3D39",
"2  c #603F3A",
"3  c #2F483C",
"4  c #3B4637",
"5  c #3D4B34",
"6  c #37453A",
"7  c #3D413C",
"8  c #364B3C",
"9  c #3B4B3B",
"0  c #3C5334",
"q  c #3F5D37",
"w  c #3C543D",
"e  c #3D5C3C",
"r  c #3E623C",
"t  c #454436",
"y  c #484235",
"u  c #44443B",
"i  c #4B433B",
"p  c #454A3B",
"a  c #4C4C3C",
"s  c #544635",
"d  c #5C4337",
"f  c #554C36",
"g  c #53453B",
"h  c #5D4339",
"j  c #544D3A",
"k  c #5C4B3B",
"l  c #465236",
"z  c #4B5336",
"x  c #425B36",
"c  c #495C37",
"v  c #45543D",
"b  c #49533B",
"n  c #445C3D",
"m  c #4B5C3C",
"M  c #53533C",
"N  c #5F573D",
"B  c #555B3A",
"V  c #5B5C3D",
"C  c #674235",
"Z  c #6B4437",
"A  c #604837",
"S  c #64433A",
"D  c #6A463B",
"F  c #634D3D",
"G  c #6D4B3C",
"H  c #734C3C",
"J  c #794E3D",
"K  c #64533D",
"L  c #6D523D",
"P  c #625F3F",
"I  c #6A5B3F",
"U  c #73523D",
"Y  c #7C533E",
"T  c #715B3F",
"R  c #7B5A3F",
"E  c #446537",
"W  c #486337",
"Q  c #44643B",
"!  c #4B633B",
"~  c #456B3D",
"^  c #4B6B3B",
"/  c #54643D",
"(  c #5A633E",
")  c #526C3C",
"_  c #46723D",
"`  c #4B733D",
"'  c #4D7B3E",
"]  c #59703F",
"[  c #537A3E",
"{  c #6C613F",
"}  c #374E41",
"|  c #375242",
" . c #395741",
".. c #365C43",
"X. c #3C5C42",
"o. c #375E48",
"O. c #366345",
"+. c #3B6445",
"@. c #3D6B44",
"#. c #3A6649",
"$. c #3D6C48",
"%. c #3F7148",
"&. c #4D4E41",
"*. c #5F4C40",
"=. c #455242",
"-. c #4A5541",
";. c #425C40",
":. c #4B5B40",
">. c #525C41",
",. c #714F40",
"<. c #635341",
"1. c #6C5540",
"2. c #645D41",
"3. c #6C5C42",
"4. c #765140",
"5. c #7D5341",
"6. c #7A5B40",
"7. c #446341",
"8. c #4B6342",
"9. c #436B42",
"0. c #4D6D41",
"q. c #5E6641",
"w. c #526B42",
"e. c #5B6A41",
"r. c #447344",
"t. c #4B7342",
"y. c #457B44",
"u. c #4B7B43",
"i. c #427548",
"p. c #4B7B48",
"a. c #527442",
"s. c #597442",
"d. c #527C42",
"f. c #5C7D43",
"g. c #666541",
"h. c #636841",
"j. c #716441",
"k. c #7D6242",
"l. c #617C43",
"z. c #727642",
"x. c #82563E",
"c. c #85593F",
"v. c #8B5C3F",
"b. c #815540",
"n. c #855A41",
"m. c #8C5D41",
"M. c #905E43",
"N. c #8E6042",
"B. c #936143",
"V. c #4E823E",
"C. c #4E8B3F",
"Z. c #52843E",
"A. c #538B3F",
"S. c #56923F",
"D. c #478144",
"F. c #4C8444",
"G. c #4E8A44",
"H. c #4F8548",
"J. c #528442",
"K. c #5A8442",
"L. c #548D43",
"P. c #5B8D44",
"I. c #508448",
"U. c #559343",
"Y. c #599342",
"T. c #5C9B43",
"R. c #5B9848",
"E. c #619547",
"W. c #619D45",
"Q. c #5FA043",
"!. c #63A345",
"~. c #66A844",
"^. c #68AA46",
"/. c #65A148",
"(. c #68A64A",
"). c #66A848",
"_. c #6CAC49",
/* pixels */
"U.L.F.U.U.U.U.S.U.U.U.U.S.U.S.S.U.U.U.U.U.U.U.U.U.U.U.U.U.U.H.=.n.m.m.M.m.b.c.b.w.R.U.U.U.U.U.U.U.U.U.G.U.U.U.S.U.U.U.U.U.U.U.U.",
"G.D.F.U.S.S.U.U.U.S.U.[ W Z.S.U.U.U.U.S.C.U.U.U.U.U.U.U.U.U.U.U.q.n.m.M.m.5.n.Y w.Y.U.U.U.U.U.U.F.F.F.D.U.U.S.U.U.U.S.G.U.U.U.U.",
"U.S.U.S.S.U.` A._ _ A.s n.5 S.U.U.U.U.D.C.U.D.U.U.U.U.U.U.U.U.U.d.U M.M.M.M.M.M.L n L.S.U.U.U.U.S.G.U.U.U.U.U.U.S.C.U.0 _ S.V.U.",
"U.S.U.U.S.) A s T U W Q l r U.U.U.U.U.U.U.G.C.U.U.U.U.U.U.U.U.U.u.k m.M.M.M.M.b.m t.S.U.U.U.G.G.S.U.U.U.U.U.U.U.U.C.C.r r q _ F.",
"U.S.U.S._ U N.n.M.n.s j l A.U.S.U.U.U.U.U.S.S.S.U.U.U.U.U.U.D.U.t.1.M.M.M.M.M.H ;.u.U.U.U.U.U.U.U.U.U.U.U.U.U.U.U.E ' w ' u.` Z.",
"U.U.A.^ $ H v.m.n.D , c.Y l L.S.S.U.U.U.U.L.L.q G.G.U.U.U.U.U.U.a.h m.m.m.M.B.Y v U.U.U.U.U.U.U.U.U.U.S.S.U.U.U.U._ Q y.y.L.X.p.",
"U.U.~ L c.Z U G D 2 1 D D * ! A.S.S.S.U.U.0 x E.e D.r U.U.U.U.U.L.! U g.2.m.b.T D.U.U.U.U.U.U.U.U.G.U.F.U.U.U.U.C.r ~ y.+.@.6 | ",
"U.C.. c.c.c.v.Z b.b., , S R c.z U.S.U.U.U.o ` L.r Q.r U.U.U.U.U.U.Y.0.P.P.I ( Z.U.U.U.G.U.U.U.U.G.U.G.U.U.U.U.U.C.r._ @.O.o.r.w ",
"U.' + h H m.x.n.M.n.D J G b.H & U.S.U.U.G.0 _ y.F.L.0 L.U.R.U.U.U.Y.U.L.L.Y.S.Y.U.U.U.U.R.G.U.U.U.U.U.S.U.U.U.U.U.L.%.y.y.y.L.p.",
"U.J.@ # $ : S D H 5.G > $ ; & ~ S.U.U.U._ r e $.i...o %.U.U.U.U.U.W.Y.~.S.!.T.Y.U.L.U.U.R.G.R.G.U.S.U.U.Q.S.S.U.U.U.U.G.U.U.U.L.",
"L.B n.y r 9 U m.H D 1 a 9.@.i.L.U.C.U.U.~ T.D.@...w y.+.U.G.U.G.U.Q.^.U.!.^.S.L.U.U.U.U.U.R.U.U.U.U.Q.S.Q.Q.~.Q.U.U.U.U.L.U.U.L.",
"Z.y h f F.. G Y 1 * & 0.) f ^ A.U.U.U.U._ @.y.$...r Q...U.R.U.U.U.U.Y.U.Y.U.Y.U.L.U.U.U.U.U.U.U.U.U.Q.Q.U.Q.Q.S.S.U.U.U.U.U.U.L.",
"U.~ 7.r.L.r 4 @ 9 e _ ) U c.V Z.U.U.U.U.L.@.%.%.$.$.r.r.U.U.U.U.U.U.U.U.U.U.Y.U.U.U.U.R.U.U.U.U.U.U.U.U.U.U.U.U.U.U.U.R.U.U.G.U.",
"U.U.U.U.U.L.Z.F.J.W A.u.7   n S.S.U.L.U.U.U.S.S.G.$.i.U.G.U.U.U.U.U.L.U.U.U.L.U.U.U.U.L.U.G.U.U.U.U.U.U.U.U.U.G.G.U.U.U.U.U.U.U.",
"U.U.U.U.U.U.Y.Y.J.b Q L.F.u.F.S.A.U.L.U.U.U.L.U.U.G.U.U.U.U.U.U.U.U.U.L.L.U.L.U.U.U.U.L.U.R.U.R.U.U.U.U.U.G.U.U.U.G.G.U.U.G.U.U.",
"U.U.U.L.A.A.L.S.L.J.F.U.Y.S.L.U.U.U.U.T.T.S.U.U.U.U.U.U.U.U.U.G.U.U.U.U.U.U.U.Y.U.U.U.U.U.U.U.G.U.U.C.U.U.y.G.U.U.U.G.U.U.U.U.H.",
"U.U.U.U.C.L.' 0.L.L.8.0.J.t.L.Y.Y.!.T.T.!.!.T.U.U.U.U.U.U.U.U.U.U.U.U.U.L.U.U.L.U.U.U.U.U.U.U.U.C.Y.;.7.u.t.L.Y.U.U.U.U.U.G.U.L.",
"U.U.U.U.t.Q u ; v n ; ; p i ^ L.U.Y.!.U.T.S.U.S.U.U.U.L.U.G.U.U.U.U.L.Y.y.A.F.L.U.U.U.U.U.U.U.~ n Q ; ; a a ! L.U.U.U.U.U.U.U.L.",
"U.U.C.~ p < h S , : , C S S a F.U.L.U.U.U.S.Y.U.S.U.L.L.L.%.U.U.U.U.L.S.U.A.G.L.L.U.U.U.U.U.Y.w , > S S S 1 y u.S.U.U.U.U.U.U.L.",
"R.U.U.u.p G c.v.c.x.c.c.c.Y a ~ S.U.U.U.L.U.U.U.L.U.U.F.G.U.S.U.L.U.U.Y.S.S.S.U.U.U.U.U.G.J.9.i c.Y n.m.n.x.M 9.Y.U.U.U.U.R.Q.Q.",
"T.U.U.L.~ S c.v.v.v.c.x.c.x./ U.Y.S.U.U.U.U.L.U.U.U.S.U.U.U.G.U.U.U.U.S.U.U.U.U.L.S.L.U.J.n i G c.m.v.v.v.v.q.L.U.U.U.G.U.R.Q.Q.",
"U.U.U.d.# G m.m.c.Z H x.v.v.<.9.S.S.L.L.U.L.U.S.U.U.U.U.U.U.U.U.L.S.A.U.G.U.U.A.S.L.y.t.u , J v.v.v.v.v.v.v.F 9 G.U.U.U.U.U.U.L.",
"L.U.U.U.) 2.2.G c.Y x.x.v.c./ Z.L.S.Y.Y.S.U.A.U.A.G.U.U.U.U.U.L.D.G.y.L.L.U.U.U.U.V.r = > H v.x.n.v.v.v.n.v.B F.S.U.U.U.U.U.U.G.",
"U.U.U.U.U.J.F.w.c.v.v.v.v.c.L p S.L.L.Y.L.r A.S.U.L.L.U.G.U.U.U.U.U.J.U.U.L.U.S.U.7.g S J c.x.H M.v.v.v.m.v.Y a U.U.U.U.U.U.U.L.",
"L.Y.U.L.L.L.Y.w.v.m.v.v.c.n.m.G d.J.# t.D.l.^ Y.L.P.Y.L.U.U.U.U.U.L.L.S.Y.U.U.U.0.; S v.v.v.v.m.v.v.v.v.v.v.m.n.v L.Y.U.L.U.U.L.",
"F.L.U.F.L.S.S.P.I c.m.v.v.v.v.c.d j ,.G j < M P.S.S.Y.S.U.U.U.L.L.Y.Y.Y.L.Y.Y.S.L.Q Z m.v.m.m.m.v.v.v.c.x.v.v.c.< d.W.Y.Y.U.U.L.",
"L.J.u.L.S.Y.Y.U.s.R v.m.v.v.v.c.H v.n.n.H C d p L.S.S.P.U.U.L.U.Y.Y.Y.Y.).Y.(.Y.F.a c.v.v.m.v.v.v.x.2 c.x.v.v.m.P w U.S.U.U.U.L.",
"U.Y.U.U.S.S.L.d.u U m.v.M.m.v.v.v.v.v.M.x.v.Y u Y.Y.S.S.G.L.y.F.S.Y.Y.U.Y.A.Y.Y.L.L.U v.v.n.m.m.x.x.x.x.v.v.m.m.m A.L.Z.F.U.U.L.",
"U.U.U.S.Y.S.L.L.` U v.m.m.m.m.m.v.m.v.m.v.m.3.d.Y.S.Y.P.L.Y.J.F.U.U.U.U.U.Y.S.Y.` v H m.v.v.v.v.v.x.x.x.v.v.v.v.d u.L.y.L.U.U.L.",
"U.U.S.S.L.S.S.Y.0.U v.m.L 6.v.g - G m.y k N.Y p E.S.Y.S.S.L.Y.Y.U.U.U.U.U.S.S.L.t.K m.v.v.M.v.v.v.v.v.v.c.C m.m.3.K.Y.S.L.U.U.L.",
"U.S.S.S.S.S.Y.E.Y.b A 2.s.) >.P.W.` M P.J.P m L.Y.Y.L.S.S.S.Y.L.U.U.U.U.U.Y.S.Y.) d v.B.B.v.M.v.v.v.v.v.J H m.m.m U.S.S.U.U.U.L.",
"S.V._ S.S.S.S.Y.Y.L.K.P.L.Y.P.Y.Y.U.L.L.U.L.L.U.Y.Y.S.S.S.S.L.Y.L.U.U.U.U.U.Y.Y.y c.v.v.B.v.v.v.M.v.v.v.v.m.m.n.F Q U.U.U.U.U.L.",
"J.~ m V.' S.S.S.S.R.T.W.T.Y.Y.U.S.S.S.U.U.U.U.U.U.S.Z.[ [ A.Y.U.U.U.U.U.U.U.U.U.d.K c.v.v.v.v.N.v.N.v.N.v.N.v.6.c Z.S.Y.U.U.U.L.",
"c 7.W ^ z Z.S.S.S.Y.!.T./._.T.U.S.U.U.U.U.U.U.U.U.^ U Y H x U.Y.U.U.L.U.U.U.U.U.L./ G v.v.m.N.v.N.v.v.v.N.v.v.c.2.L.S.U.V.G.C.L.",
"^ d./.I.^ ^ Z.S.S.U.U.U.U.Y.U.S.U.U.U.U.U.U.U.U.S.W R Y Y Y ! Y.U.S.S.U.Y.S.L.S.Z.g v.m.N.M.N.v.B.v.N.v.v.m.v.N.U K.W.A.S.y.G.U.",
"8 p.I.9.Q [ E S.S.Y.U.U.U.U.U.U.U.U.U.U.U.D.y.S.Y.U.s v.N.v.>.L.U.S.S.S.Y.Y.y.L.J.n c.m.v.v.x.v.v.v.N.v.N.v.N.v.K ` S.S.S.S.U.q ",
"t.r.O.8 t.t.~ U.S.U.U.U.U.U.S.S.U.A.U.U.S.F.C.S.Y.U.! H h.&.;.L.S.S.S.S.Y.S.L.L.L.:.b.m.v.v.x.v.N.v.m.M.v.N.B.v.k _ S.S.U.U.U.0 ",
"u.@.+.9.e ..+.U.U.U.U.U.U.U.U.U.U.U.S.S.U.U.S.S.S.Y.U.W 3 %.p.U.U.U.U.U.S.A.S.S.P.w.,.m.m.m.m.m.v.N.n.m.N.v.v.m.x.a !.S.S.U.U.0 ",
"o.$.%.p.#.O._ U.U.G.U.U.U.U.U.U.U.S.U.U.U.S.S.S.S.U.U.U.U.G.G.U.U.U.U.U.S.S.S.S.Y.L.m g.k.z.2.n.v.x.J c.v.v.v.v.R ] U.U.U.U.U.D.",
"G.G.G.L.F.G.L.U.U.U.U.U.U.U.U.L.D.L.y.U.S.S.S.L.L.U.J.U.R.G.R.R.U.U.Y.U.S.U.U.Y.U.Y.U.P.P.Y.Y.B v.v.c.v.v.B.M.v.j.Z.S.S.U.U.U.L.",
"U.U.U.Y.Y.Y.Y.U.S.U.U.U.U.U.U.V.` u.9.G.G.' ~ U.G.D.%.U.U.G.U.G.U.L.V.c * $ ' U.U.U.U.U.U.U.U.r.6.v.N.v.m.m.m.b.) Y.S.S.S.U.U.U.",
"U.U.U.U.U.U.U.Y.U.Y.Y.S.Y.r.u.a ; & < a v u :.T.U.G.G.R.U.R.U.U.U.^ s d H 5.B U.U.U.U.F.U.D.U.R.f.R v.N.v.B.m.n.h.Y.S.S.S.U.U.U.",
"Y.U.U.G.H.L.H.L.U.Y.Y.S.S.O ; 1 S D D S < < m _.U.U.U.U.R.U.R.U.u.d c.S G D y F.U.U.U.G.D.U.U.U.a.U v.N.B.m.m.m.<.n L.S.S.T.!.L.",
"U.U.U.R.U.U.U.U.U.Y.U.R.s.> h Y m.m.m.n.Y 4.-.7.U.U.R.U.G.R.U.U.) 4.S m.D % 8 F.U.Y.U.U.R.U.U.Q.z H M.m.m.m.m.G a.U.S.Q.~.W.W.T.",
"R.U.U.U.U.U.R.U.Y.F.` n < D c.v.v.m.m.v.v.S n L.U.U.U.U.U.R.U.U.Z.t % < p e J.U.U.U.U.U.R.U.U.R.K.L m.v.m.m.m.Y p J.Q.Q.T.U.Y.Y.",
"U.U.U.U.U.U.U.U.U.J.; > 1 n.m.m.m.N.m.N.m.n.M J.U.U.U.U.U.U.U.U.U.J.$.O.%.U.W ' S.U.U.U.R.U.U.U.u.; n.U H v.m.L G.U.S.S.S.S.S.S.",
"G.G.U.R.U.U.U.G.^ &.1 D J n.c.Y m.N.N.v.m.n.V L.U.U.G.U.U.U.U.U.U.U.U.U.U.U.b Z.U.U.U.U.U.U.U.U.U.' { ] ] I R Z.U.U.U.U.S.U.Y.U.",
"i.D.G.U.R.U.U.L.- 1 J v.M.m.v.Y v.m.m.m.m.m.U v U.U.R.U.R.U.U.U.U.U.U.U.U.U.L.U.U.U.R.U.U.R.U.U.U.Y.L.T.U.d.J.U.U.U.U.R.U.U.U.U.",
"U.U.U.U.U.R.U.U.D.8.n.m.m.m.m.N.v.m.m.c.m.m.U d.Y.U.U.U.R.G.R.U.U.U.H.U.U.G.R.U.U.R.U.U.U.U.U.U.U.R.U.U.U.U.U.U.U.U.U.U.U.U.U.G.",
"U.U.U.U.U.U.U.U.R.9.,.m.m.m.m.m.m.H x.J n.n.*.d.U.U.R.U.U.U.U.U.G.G.D.D.G.R.U.U.U.U.U.Q W S.S.S.R.U.U.U.U.U.R.U.U.R.U.Q.U.Q.U.H.",
"U.U.U.R.U.U.D.G.r.*.m.m.M.m.m.N.x.b.b.m.M.S t.U.U.U.U.U.R.U.U.U.R.U.U.U.R.R.U.U.U.U.c x.c.k Z.U.U.U.R.U.U.R.U.S.U.U.U.U.H.U.G.D.",
"R.U.U.U.U.U.G.G.L.K.5.N.m.m.N.N.n.5.5.m.m.D w.U.S.S.U.U.U.U.U.R.U.U.U.R.G.R.R.U.U.n U N.c.S t J.U.R.U.U.Z.l z Z.U.U.U.S.U.U.U.U.",
"U.U.U.U.R.U.U.U.p.8.,.m.m.m.N.m.m.m.N.m.m.S ^ U.T.~.Q.U.T.U.R.U.U.U.U.U.U.U.U.U.) G x.H S 1 > ~ U.R.U.U._ D x.K B ^ ' S.U.U.U.U.",
"U.R.R.U.U.R.U.U.a.g m.m.5.1.N.B.m.n.m.m.N.Y  .J.U.^.T.Q.Q.U.U.U.R.U.R.R.U.U.U.R.$ c.n.H % > &.u.U.R.U.U.B n.M.M.H , d l U.U.U.U.",
"U.U.U.U.U.U.U.U.8.1.m.3.P K.<.4.<.e.L N ( F a.L.U.U.U.U.U.U.R.U.U.G.G.R.U.R.R.U.$ 2 D % 6 9 9.U.U.U.U.y.d c.n.n.D H b.k D.U.U.L.",
"R.U.R.U.U.U.U.R.Y.d.>.J.K.L.P.d.d.Y.J.J.U.t.R.U.R.R.U.U.U.U.U.U.U.R.U.U.U.U.U.R.0.9 6 w H.U.U.U.R.U.U.o.H Y D 2 , c.G 1 9 H.U.U.",
"U.R.Q.Q.Q.R.U.U.R.U.U.U.U.U.U.U.U.U.U.R.U.U.T.U.U.U.U.R.U.U.U.Y.G.U.t.;.W.U.R.U.U.U.U.U.U.U.U.U.R.U.u.h H b.2 4.Y D 1 D # #.U.L.",
"Q.).Q._.Q._.U.U.R.U.R.R.U.U.U.R.R.U.U.U.T.U.U.U.R.U.R.U.U.U.Y.U. .#.< < a.&.F.U.R.U.U.U.U.U.U.U.U.Y.z ,.D H b.M.m.S % < # i.U.U.",
"U.Q.T.U.U.U.U.R.U.R.U.G.D.R.U.U.U.U.R._.Q.U.Q.U.G.R.U.U.U.U.P.=.< < 2 *.1 < &.R.Y.U.U.U.U.U.U.R.U.R.% S ,.b.1 ,.m.,.% n.H 7 F.L.",
"U.U.U.U.U.R.U.U.U.U.U.U.D.H.D.U.U.U.U.Q.Q.Q.U.U.U.U.U.R.R.Y.y.j <.5.n.m.5.,.*.t.U.U.U.U.U.R.U.U.U.U.;.- 1 % = : d - ,.5.1 X y.Y.",
"U.Q.U.U.U.U.D.L.U.U.U.U.U.U.G.U.U.U.R.R.U.R.U.U.U.U.U.U.U.U.U.d.h.n.M.N.m.,.F 0.S.Y.Y.U.G.U.U.R.U.U.U.p.o.;. .| } #.:.; u X.G.U.",
"U.U.U.U.R.L.L.U.U.R.U.R.U.R.R.U.R.U.U.U.U.U.U.R.U.U.U.R.U.U.p.&.b.N.N.5.b.n.*.=.p.Y.Y.C.y.U.G.U.U.R.U.U.U.U.H.H.H.G.H.p.H.L.U.U.",
"U.R.U.U.U.R.R.U.R.U.R.U.U.U.U.U.R.U.U.R.U.U.U.U.G.D.U.U.R.U.H.8.*.n.n.5.n.m.b.:.u.U.U.U.G.U.H.U.U.R.R.U.R.U.R.U.U.U.U.U.U.Y.U.R.",
"U.U.U.U.L.P.L.L.L.L.H.R.L.U.U.U.L.L.L.L.L.U.L.U.L.D.L.U.L.L.t.< 4.n.N.n.n.m.5.-.L.L.L.L.L.U.U.L.L.L.L.L.P.L.L.L.L.L.L.L.L.L.P.I."
};
