/* XPM */
static char *out[] = {
/* columns rows colors chars-per-pixel */
"64 64 221 2 ",
"   c #24272C",
".  c #232C2C",
"X  c #2A2C2B",
"o  c #33272C",
"O  c #3A272B",
"+  c #322B2D",
"@  c #3B2A2C",
"#  c #2B352E",
"$  c #26382C",
"%  c #2B3B2C",
"&  c #33322E",
"*  c #37352E",
"=  c #2E3733",
"-  c #233D33",
";  c #2B3C32",
":  c #353531",
">  c #3A3331",
",  c #343B33",
"<  c #3C3A33",
"1  c #442D2F",
"2  c #492E2F",
"3  c #44322E",
"4  c #4B322E",
"5  c #42392C",
"6  c #53342F",
"7  c #5B372F",
"8  c #492F32",
"9  c #433431",
"0  c #4B3432",
"q  c #453B34",
"w  c #4C3B34",
"e  c #4D3E38",
"r  c #553531",
"t  c #5B3631",
"y  c #533B34",
"u  c #5B3B34",
"i  c #573D39",
"p  c #633C33",
"a  c #6A3E33",
"s  c #1F4434",
"d  c #2A452E",
"f  c #39442D",
"g  c #344C2F",
"h  c #29572F",
"j  c #38582E",
"k  c #234434",
"l  c #2B4432",
"z  c #254B34",
"x  c #2B4B34",
"c  c #214538",
"v  c #2A4B38",
"b  c #334333",
"n  c #3D4334",
"m  c #334C33",
"M  c #3B4C33",
"N  c #344739",
"B  c #3C4339",
"V  c #3A4E39",
"C  c #265233",
"Z  c #2C5434",
"A  c #2D5B34",
"S  c #2C5339",
"D  c #345434",
"F  c #3B5434",
"G  c #325C35",
"H  c #3B5C34",
"J  c #32553B",
"K  c #3B533C",
"L  c #335C39",
"P  c #3C5C3B",
"I  c #2F6234",
"U  c #2F6638",
"Y  c #336435",
"T  c #3D6335",
"R  c #356B35",
"E  c #3B6B36",
"W  c #366339",
"Q  c #3C633A",
"!  c #376B38",
"~  c #3B6B3A",
"^  c #3B7336",
"/  c #3C7736",
"(  c #3D7339",
")  c #49452F",
"_  c #4B4335",
"`  c #454837",
"'  c #4C4C39",
"]  c #554235",
"[  c #5D4434",
"{  c #544836",
"}  c #5A4C35",
"|  c #524239",
" . c #5C443A",
".. c #524B39",
"X. c #435936",
"o. c #465438",
"O. c #49543D",
"+. c #435C3B",
"@. c #4A5A3B",
"#. c #5B523A",
"$. c #565D3C",
"%. c #58593A",
"&. c #634236",
"*. c #6A4335",
"=. c #634937",
"-. c #684C37",
";. c #654239",
":. c #694539",
">. c #624B3A",
",. c #6C4A3A",
"<. c #734D3B",
"1. c #774C39",
"2. c #63543B",
"3. c #6B533B",
"4. c #685C3D",
"5. c #74523D",
"6. c #7C533C",
"7. c #7B5A3E",
"8. c #436435",
"9. c #436B34",
"0. c #4E6837",
"q. c #42653B",
"w. c #4B643A",
"e. c #446C3B",
"r. c #4B6C3C",
"t. c #55673B",
"y. c #5B643C",
"u. c #556C3D",
"i. c #427336",
"p. c #427C36",
"a. c #4C7C37",
"s. c #44733B",
"d. c #4B733D",
"f. c #437B3B",
"g. c #4B7C3C",
"h. c #53733E",
"j. c #527C3E",
"k. c #66683F",
"l. c #71613F",
"z. c #365941",
"x. c #376643",
"c. c #3D6542",
"v. c #3C6C42",
"b. c #3F7441",
"n. c #425F41",
"m. c #5C5443",
"M. c #725B42",
"N. c #7E5D41",
"B. c #426040",
"V. c #446D42",
"C. c #556743",
"Z. c #437442",
"A. c #4B7441",
"S. c #447B43",
"D. c #4B7D42",
"F. c #4B7749",
"G. c #537D41",
"H. c #577844",
"J. c #636E40",
"K. c #82563D",
"L. c #85593E",
"P. c #8B5D3E",
"I. c #8C603E",
"U. c #815640",
"Y. c #865B41",
"T. c #8C5E41",
"R. c #905E42",
"E. c #816047",
"W. c #8C6042",
"Q. c #816249",
"!. c #468136",
"~. c #498537",
"^. c #4B8A36",
"/. c #46813A",
"(. c #4C843D",
"). c #4D8B3C",
"_. c #518537",
"`. c #51853E",
"'. c #518D3D",
"]. c #4F9138",
"[. c #569736",
"{. c #54933E",
"}. c #58963C",
"|. c #569A3A",
" X c #5A9C3C",
".X c #619D3E",
"XX c #5DA23C",
"oX c #62A53C",
"OX c #65AB3D",
"+X c #69AD3E",
"@X c #6DB33D",
"#X c #69B43C",
"$X c #71B43E",
"%X c #73B93D",
"&X c #78C13E",
"*X c #478140",
"=X c #4C8442",
"-X c #4E8A42",
";X c #528542",
":X c #5C8543",
">X c #528D43",
",X c #5A8D43",
"<X c #568A49",
"1X c #598B4A",
"2X c #549342",
"3X c #599443",
"4X c #5C9B43",
"5X c #5A9348",
"6X c #608942",
"7X c #619E46",
"8X c #5FA043",
"9X c #63A443",
"0X c #66AA44",
"qX c #6AAC41",
"wX c #68A94A",
"eX c #6CB340",
"rX c #71B643",
"tX c #75BC41",
"yX c #7ABE45",
"uX c #7BC242",
"iX c #82C845",
/* pixels */
"<X2X*X2X2X2X2X{.2X2X2X2X{.{.2X{.4X2X2X{.2X2X2X2X2X2X2X2X2X2X5X1XM.E.T.T.R.K.U.T.%.=X2X2X2X3X2X2X5X>X2X-X>X2X2X{.2X2X2X2X{.2X}.2X",
"=X=X-X2X{.{.{.2X4X{.2X`.%.t.{.2X2X2X2X2X2X*X2X2X2X2X2X2X2X2X2X2Xh.M.R.T.T.K.T.Y.k.h.2X2X2X2X2X2X>XS.2X*X2X2X2X2X2X{.2X).(.2X2X{.",
"-X{.{.2X{.{.9.8.F f (.@.6.>.(.2X2X2X2X-X-X-Xb.-X2X2X2X2X5X2X2X2X>XJ.Y.R.R.R.R.R.6.' D.2X2X2X2X2X2X2X2X2X2X2X3X{.}.2X2Xg.+.(.g.).",
"2X2X{.{.{.0.5.<.I.W.) r.b Q 2X{.2X2X5X2X2X2X2X2X2X2X2X2X2X2X-X>X>X' Y.R.R.R.R.L.O.D.2X2X2X2X>X-X2X2X2X2X2X2X2X2X2X{.9.Q 8.e.r.(.",
">X2X{.{.g.&.P.I.P.T.&.} 2.0.{.2X2X2X2X2X2X2X2X'.2X2X2X2X2X2X-XD.>X..T.R.R.R.R.T.| +.;X2X2X2X2X2X2X2X2X2X2X2X2X2X2X(.T A.;Xe.j.s.",
">X2X>X0.] u 6.P.K.:.u <.K.y g.{.{.2X2X2X2X{.>Xr.Z.-X>X2X2X3X2X2X>X' U.Y.6.R.R.T.m.;X3X2X5X2X2X2X2X2X2X2X2X2X2X2X2X(.N D.S.v.Q L ",
">X2Xw.-.L.1.1.<.*.:.u ;.:.u } d.'.{.2X2X2Xs.H H P ;Xg 2X2X2X2X2X5X`.%.k.H.N.N.3.=X2X2X2X2X2X2X2X2X-X2X-X>X2X2X2X}.s.*XS.v.z.z.P ",
">X2X* ,.K.L.I.6.U.Y.*.[ &.L.P.=.-X{.2X2X2Xd.j.D D.(.f 2X2X5X2X2X2X{.>XG.}.6Xu.;X2X2X2X2X2X2X2X2X2X>X2Xi.G F H j (.*X*XW x.z.b.D.",
">X{., y &.6.5.<.T.Y.,.&.&.-.,.q -X{.2X2X>Xi.d.b.-Xb.% D.>X2X2X2X2X2X2X2X}.{.3X{.2X2X2X2X5X2X2X2X2Xs.H d.4X4XXX9XH H (.).-X-X-X-X",
">X'.' * * > u &.,.<.5.y q > < 8.-X2X2X2X).d x.=XS.z.$ x.-X2X2X5X2X4X7X4X3X.X4X{.2X2X2X2X2X2X5X5X(.9..XqXOXrXoXXX X[.T (.>X2X2X2X",
";X%.U.>.e.+.5.T.6.&.u _ D.g.D.>X>X{.2X2X-XD s.S.z.Z 1X<X=X2X2X2X>X'.7X`.'.7X3X'.2X2X2X5X2X2X2X2Xg [.yX%X+XoXOX XrXXX=XF -X].2X2X",
"(.X.q ..g.+.] ,.y q q q.t.[ ..(.2X2X2X2X-XJ Z.S.z.W 5XZ.=X2X2X2X(.9.j j H j i.'.2X2X2X2X2X2X2X(.d {.$X#XoX{.0XXXeX2Xf.G ( 2X2X2X",
">X=XD.D.>X(.q.V K V.s.g.2.5.{ _.{.2X2X2X5X=X*X*XS.v.b.b.>X2X2X;Xe.}.yXoXoXrX'.H =X2X2X2X2X2X{.D R ~.XX@XXX XXXXX[.].^.Y E >X2X{.",
"<X2X2X>X>X3X>X>X>X0.d.>Xm , F >X>X2X>X2X>X2X2X2X2X*Xb.5X2X2X2XJ .X%XuX%X+XiXrX Xd >X2X2X2X2X2Xx E p.{.].{.4X).].i.p.].Y T 2X2X{.",
"<X2X2X2X>X{.>X}.'.w.H ).;X>X>X>X>X2X2X2X2X2X2X2X>X2X2X2X2X2Xs.T oX$X%X$XrX9X+X9XD d.2X2X2X2X2XN Z E / >X).{.{.).^ !.R d Y 2X2X-X",
">X2X5X2X3X'.>X>X'.>X=X>X{.>X{.{.2X2X2X4X2X2X5X2X2X>X2X2X2X2XQ E '.[.%X+XqXoX X{.G q.2X2X2X2X2Xl z C R ).).[.).f.Y ^ C - W 2X{.2X",
"-X2X2X2X>X(.q.V g.>Xn.` Z.d.g.2X>X4X0X4X4X8X4X2X2X2X2X2X2X2XT 9.{.oXOXrXqXXX}.~.W T 2X2X2X5X4Xe.k Z Z Y Y f.( Y U A z k e.2X2X>X",
">X2X2X2XD.O.' y _ +.e i e ' O.>X>X{.4X4X2X4X{.2X'.2X2X).2X-XH Y (.|.'.8X0X).{./.G Y 2X2X2X2X5X2X= k z z C U A A A c - G {.2X2X{.",
"<X2X>Xs.w.i ,.N.5.u <.6.N.:.y P '.{.2X2X2X2X2X2X{.2X{.-X-Xf.Q J R f./ -X'.^./ ^ A q.{.2X2X2X4X-X] : c c s - c z c - H ).2X2X2X2X",
"5X4X{.;XK ;.K.K.L.Y.L.L.K.K.#.q.-X2X2X2X2X3X}.>X>X2X{.-X2X2X~ x Z A ( f./.( I Z z 8.2X'.2X*Xe._ 5.<.y < = O O ; x G '.2X>X8X8X8X",
",X2X5X2Xq.{ K.L.P.L.L.1.K.K.2.d.2X{.2X2X4X2X4X2X{.{.2X{.'.>X).D z C Y I I A Z z D (.>X(.2Xn.| ,.L.P.P.6.4 7 2 b f.-X>X2X{.{.2X2X",
">X2X>X;XB u L.P.L.,.*.L.P.L.4.P '.>X2X{.>X;X=X(.(.).'.{.2X2X2X-XQ x d k . d k H {.'.=XA.` u <.L.L.P.P.L.6 *.2 : Z A Y -X2X2X{.2X",
"<X2X2X2X(.H.$.%.L.L.L.6.P.P.%.d.'.2X(.H 9.8.9.9.9.8.T g.2X{.{.{.>XL % @ 2 # e.>X{.>Xe._ t *.P.P.L.P.L.=.3 *.4 l S G S W /.2X2X2X",
">X2X2X2X2X2X;XA.7.L.P.P.P.P.6. .`.d.j [.OX%XuX%X+XoX[.E (.2X2X{.{.'.q.t p b {.{.>XA.e  .K.L.L.1.L.L.&.y 3 a 6 = x S A A U ).2X2X",
"<X2X2X>X2X2X,X>X7.L.P.P.L.6.P.K.@.H  X$XuX+XyX0X+X+X+X).D ).2X2X2X{.q.p a = G W L B ,.Y.L.P.P.P.P.L.] q 1 p r X ; m A G L (.>X2X",
";X=X>X=X>X>X{.3Xu.7.L.P.Y.P.L.P.y 9.[.%XeXOXOXOX X[.+X].R s.2X2X>X>XF 6 p # L L L J _ U.P.P.P.P.P.P.] 9 O 2 _ X.w.e.T x l (.{.{.",
"<X>X>X2X>X}.2X>XA.[ P.P.T.P.P.L.} T {.yX%X#XXX|.[.#X@Xp.I e.-X>X{.( l i &.# W J L v q L.P.P.P.I.P.K.1.w X.}.XXtXiXuX8X X[.D ].2X",
">X2X,X}.3X{.{.>X` >.P.P.I.P.P.P.X ^ p.OXOXXX).'.{. X].i.U k *X-X2Xs.# t 7 + L L L S n L.P.P.P.P.L.K.K...}.rXuX#XuXeXrX#XOX{.R -X",
">X3X{.3X'.3X,X>X;XM.L.P.I.P.T.Y.# E !.[.[.[. X~.[.~.!.^ ( l >X-X2XZ.X i r O S L J b w L.P.P.I.I.P.P.1.X.XXuXuXXX#XOXXXXXXX].G s.",
">X{.2X{.{.,X'.3Xg.#.K.L.5.#.P.3.. h !./ ^.XXXX[./ !.f.f.^ % '.{.2Xs.J X X J L L J N y Y.P.I.P.P.P.P.5.H |.#X#X#X#XXX|.XX[.^.T 9.",
">X{.2X2X}.2X}.}.3XG._ k.h.,Xu.g.  C h ^ / !.!./ ^ ^ E R G $ 2X2X2X>XZ.~ U L L L J q K.I.I.P.I.I.P.P.5 i.].#X#XXX].].|.OX[.~.R $ ",
",X>X8.{.2X{.2X,X{.2X`.{.3X2X3X2X% z R R R ^ R R R E Y z z d {.>X2X{.2X2X=X-X=X=XK =.L.P.I.P.P.I.P.P.% ^ ^.XX|.].].^.[.[.{.~.^ % ",
"G.e.G.8.8.9.2X2X2X4XwX4X9X2X4X3X(.$ A c s h I A C z A k , j.{.{.2X2X2X2X2X{.2X{.-X@.6.L.L.P.I.P.R.W.# Z ^ / ].].XX[./ !.!.!./ ; ",
"B q.:XH j.H 2X[.{.2X4X3XwX7X7X2X2X(.d - s - k - z c - , ,.] (.{.{.2X>X3X2X>X'.{.{.G.[ L.P.P.P.T.P.I.X z A ^ / !.!./ ^ ( ( ! W $ ",
"V (.7X,X;X# 8.{.'.3X2X2X2X>X2X2X2X>X).Q     8 o     d.*.K.L.y.{.2X}.'.'.{.{.=X{.`.' 6.P.P.R.I.T.P.T.+ x W ( ( ( U I R R Y A c . ",
"V A.Z.Z.P h.T 2X{.2X2X5X2X2X2X2X2X2X{.2X{.F r r m '.M 6.P.P.&.g.{.'.}.3X}.3XS.=X2XG.>.I.P.P.P.L.P.P.K.` S C C Y I C h C C c v s.",
"<Xs.x.J Q 1Xq.2X{.2X2X2X2X2X2X2X2X2X2X'.2XF p r m (.s...6.y ` =X{.{.{.{.3X'.'.>X>Xw.,.W.W.L.Y.L.T.P.I.5.b c c c z c c s s c H ).",
"V.V.v.b.z.x.J ).2X2X2X2X2X2X2X2X{.2X{.'.~ , a t # G G H b x.D.2X2X2X2X3X'.}.}.'.}.<X' U.P.I.Y.Y.I.P.I.L.,.0 ;   o o ; - l b 2X).",
"v.x.b.*Xx.x.b.2X2X2X2X>X2X>X2X2X{.2X>X~ D , a r # L L L ! (.2X>X2X2X2X>X2X[.,X{.{.3X=XC.l.k.;XM.P.L.K.6.T.T.6.9 r 6 V (.).2X{.>X",
"<X-X>X5X-X-X2X2X2X2X2X2X2X2X2X{.D.3XZ.G ; 8 p r > Z L S L ! 2X2X>X2X3X>X;X`.>X2X2X2X2X2X,X2X2X-X5.P.L.P.P.P.7.1 a r b ~ ~ *X'.{.",
"<X2X2X5X2X2X2X2X3X2X2X2X2X2X2X>XP P V N l 8 r 0 > S S S L R 2X2X2X2Xj.r.-.,.@.>X2X2X2X2X2X2X2X2Xk.K.P.I.I.L. .+ p 7 , Y L U ~ -X",
">X2X2X2X>X2X2X2X2X2X{.'.'.=Xd.O.e w e < , : + , L A G G L ~ 2X2X2X=X} y :.1.} (.2X2X2X2X-X-X2X2X>X4.I.P.L.[ ] @ a t l Y W L W s.",
"<X2X4X2X*X2X=X2X2X{.{.{.9XB.e i 5.U.6.-.q 9 , L L L L U ( -X2X2X(.} Y.<.:.K.9 P 2X2X2X2X2X2X2X2X`.#.P.P.7.] w 2 a 7 + D W W Q W ",
"<X2X2X2X).g.A.d.d.g.[.[.6Xe ;.<.P.P.T.T.5.5.B J ~ W R /.2X2X2X2X(.[ &.<.:.] V ~ >X>X2X2X2X2X2X2Xh.[ P.I.L.] 9 @ 7 4 O S Q W W v.",
",X2X2XT m (._._.[.a.m o.w *.K.L.P.P.I.P.P.K.{ e.'.).>X2X2X2X2X4X>Xr.9 3 n x.>X>X2X2X2X2X2X2X2X4X3XC.K.T.P.,.y 5 + : m L L L W f.",
"2X3Xi.s.eX9X+X%X+XOXOX`._ 1.P.P.P.I.P.I.T.P.m.r.{.{.{.2X2X2X2X2X2X2X-Xv.~ >Xr., 2X2X2X2X2X2X2X2X>Xo.,.K.=.L.7.] D W G U W Y (.{.",
"<Xe.9.+X%XOX+XqXoX+XtX[.H &.K.6.P.P.P.I.P.P.2.j.{.2X2X2X2X2X2X2X2X2X2X2X2X2Xw.d.2X2X2X2X2X4X2X2X2X-Xu.J.,Xy.2.$.(.(.*X-X(.2X2X{.",
"F.D s.OXtXoX XOX%X@XXX^.U f 6.P.T.P.P.I.P.I.<.n m D D S / 2X{.2X2X2X2X2X2X2X2X2X2X2X2X2X2X2X2X2X4X4X2X4X2X>X).2X2X2X2X2X2X2X2X2X",
"D.D E [.tX8X|.XXXX{.4X[./ Z 1.P.P.P.P.K.K.<.8.}.}..X}.}.i.8.).{.2X-XS.2X2X2X2X2X2X2X2X2X2X2X2X{.2X2X2X2X2X4X2X2X2X2X2X2X2X2X2X2X",
"D.D / (.}.|.{.{.|.{.^.'.^.m 5.P.P.6.K.K.&.r.oXiX%X$XrXiXOXg.s.{.-X-X-X-X2X2X2X2X2X2X4Xd.@.w.{.{.2X2X2X5X2X2X2X2X2X2X2X2X2X4X2X2X",
"=Xx G f.!./.).{.^./ / p.G % 6.I.K.<.1.K.) '.+X$X&XiXqX%X@XXXg.2X2X2X2X2X2X2X2X2X2X2X9.5.L.L.t.{.2X5X2X4X2X2X2X}.2X{.2X2X-X-X-X-X",
"G.d z I !.'.[.4X2X( / ~ Z ; 6.I.P.K.K.=.Z ^.+XoXoXyX$X%X#XOX( e.2X2X2X2X2X2X2X2X2XA.=.P.L.5.0 8.2X2X2X2X2Xr.y w.2X2X{.2X2X-X2X2X",
";Xm k Z / ^ ( ).( R Y A z q Y.P.P.P.P.-.A ~.].XXoXoXoXoX[.[.f.~ 2X2X2X2X2X2X5X2XA.3.K.<.;.u i : 2X2X2X2X2Xz.T.6.2.X.X.(.2X2X2X2X",
">Xe.; z C A Y R R I z c - w L.R.W.U.L.[ G '.].XXoX&X#XXXXX}./.T 2X2X2X2X2X2X4X2Xn ,.L.K.8 0 e V.8X2X5X2XK M.I.P.K.&.6.w f.2X2X2X",
"<X2Xe.- - v v k k x c ; V j.y.M.2.u.#.' Z i.].!.^.[.[.].(.(.! Q 2X2X2X2X2X2X4X2Xo.i r y N z.v.2X2X2X2X-X..1.K.L.1.*.P.<.+.2X2X2X",
">X3X{.g.l # = @ X . # g.'.{.3X6Xj.{.'.s.d A R ^ ^.^.]./ R ~ Z Q 2X2X2X2X2X2X2X2X(.B.K P *X2X2X2X2X2X2X-X[ T.,.:.&.<.5.&.3 W 2X2X",
">X4X2X8X4X[.> 7 0 s.2X{.{.{.2X2X2X2X2X2XA C h I ^ / R I Z C S g.-X-XV.n.1XwX2X2X2X2X2X2X2X2X2X2X2X2X2X@.:.<.a <.L.<.u :.0 z.D.>X",
"5X0X0X0X9X7X3 7 4 P s.f.-X{.2X2X2X2X2X2XE c z z C h I I C z 9.2Xc.z.i r C.C.V.>X2X2X2X2X2X2X2X2X2X2Xd.=.:.1.M.U.P.6.0 r e z.=X{.",
">X4X2X4X'.~ 3 *.4 m W L S S.2X2X2X5X2XwX9X;XN $ X & % k k T 3Xq.m.r i M.p i i H.4X2X2X2X2X2X2X4X3X2Xo.t :.U.u ;.L.<.1 1.T. .q.'.",
">X2X2X-X~ G 5 *.6 x G L L S v.-X2X2X2X8X4X4X'.e.@ 6 O s.g.{.*X+.m.<.U.T.Y.U.:.n.2X2X2X2X2X2X2X2X2X2XF.n.e r : 0 y q e M.p q K 2X",
"5X3X2X-XW x 0 a 6 b G J L L ~ 2X2X4X2X2X2X2X2X/.@ 7 1 T ( ( -X>Xy.6.T.T.T.6.:.n.>X2X2X2X2X=X4X2X2X2X2X<Xb.v.c.z.K J V.n.B K S.2X",
">X2X2X*XQ # 2 r 6 > L L L Y s.2X2X2X2X2X2X2X(.G O p 8 G L L L N <.Y.T.U.U.T.1.i n.4X2X2X-Xb.=X-X4X2X5X2X2X2X5X<X>X<X<X2X<X2X2X2X",
"5X3X3X-X~ K , 1 > m L L L L S.2X4X2X2X2X4X-XW S 1 a 2 A A Y J S e 5.W.U.T.W.T.>.D.2X2X2X-X2X>X2X2X2X2X5X5X5X2X5X2X2X2X2X3X2X2X2X",
"1X1X1X<XF.W J J J L P L L Z.1X<X1X1X1X1X<XY J l 1 a O J J J K N | M.Q.Q.N.Q.Q.m.G.1X<X<X<X<X<X<X5X<X<X5X1X1X1X1X1X1X1X1X1X1X1X1X"
};
