/* XPM */
static char *out[] = {
/* columns rows colors chars-per-pixel */
"64 64 216 2 ",
"   c #0F0C0A",
".  c #18150D",
"X  c #161313",
"o  c #271919",
"O  c #351114",
"+  c #1C2F1D",
"@  c #292516",
"#  c #30241D",
"$  c #22341D",
"%  c #2A1822",
"&  c #1C2225",
"*  c #0C2233",
"=  c #3A2B28",
"-  c #29302D",
";  c #36372B",
":  c #363736",
">  c #3C3C35",
",  c #6F121C",
"<  c #762E1F",
"1  c #6A1D20",
"2  c #771725",
"3  c #44322E",
"4  c #413532",
"5  c #4E3235",
"6  c #433A34",
"7  c #4B3936",
"8  c #4C3B35",
"9  c #523735",
"0  c #543B35",
"q  c #5B3D36",
"w  c #543D39",
"e  c #5C3D38",
"r  c #6F312D",
"t  c #623D37",
"y  c #37552B",
"u  c #344A30",
"i  c #384837",
"p  c #3A4D3C",
"a  c #3B5435",
"s  c #395B37",
"d  c #34533C",
"f  c #3C533B",
"g  c #3C5C3C",
"h  c #3F6837",
"j  c #3D623C",
"k  c #4C4A2A",
"l  c #454B37",
"z  c #44433A",
"x  c #4C4339",
"c  c #4B4A3A",
"v  c #5B4236",
"b  c #574837",
"n  c #534339",
"m  c #524A3A",
"M  c #5D4D3A",
"N  c #475634",
"B  c #425D35",
"V  c #43533B",
"C  c #4A543C",
"Z  c #445C3D",
"A  c #4A5D3D",
"S  c #515736",
"D  c #53533C",
"F  c #5A523D",
"G  c #535B3A",
"H  c #5C5A3D",
"J  c #634337",
"K  c #674836",
"L  c #6B4A37",
"P  c #644339",
"I  c #6A4639",
"U  c #634B3B",
"Y  c #6C4B3A",
"T  c #77453A",
"R  c #734C3A",
"E  c #794F3B",
"W  c #64543C",
"Q  c #6B543C",
"!  c #695B3D",
"~  c #75533C",
"^  c #7C533D",
"/  c #74593E",
"(  c #7C593E",
")  c #456735",
"_  c #43643C",
"`  c #4C653C",
"'  c #446B3C",
"]  c #4B6C3C",
"[  c #55633D",
"{  c #5A633E",
"}  c #576C3F",
"|  c #477A37",
" . c #45723C",
".. c #4B743D",
"X. c #4C7B3D",
"o. c #53743D",
"O. c #527A3F",
"+. c #66683E",
"@. c #1C3141",
"#. c #323B4B",
"$. c #113E63",
"%. c #693540",
"&. c #355D42",
"*. c #3B5C42",
"=. c #31485B",
"-. c #366442",
";. c #3A6544",
":. c #3D6E44",
">. c #3E7144",
",. c #15576E",
"<. c #194C7B",
"1. c #475A40",
"2. c #655543",
"3. c #6F554E",
"4. c #765441",
"5. c #426442",
"6. c #446C41",
"7. c #4B6A40",
"8. c #5D6340",
"9. c #556E41",
"0. c #437443",
"q. c #4B7541",
"w. c #457B44",
"e. c #4B7B42",
"r. c #537341",
"t. c #527C41",
"y. c #5D7943",
"u. c #666341",
"i. c #756542",
"p. c #657448",
"a. c #425064",
"s. c #4F6C6A",
"d. c #6A6E74",
"f. c #6F707C",
"g. c #871C26",
"h. c #9B1825",
"j. c #A31024",
"k. c #872523",
"l. c #99272B",
"z. c #B7282C",
"x. c #BD2A33",
"c. c #CB1E24",
"v. c #D21D26",
"b. c #C7282C",
"n. c #D42429",
"m. c #DC2429",
"M. c #E42729",
"N. c #E73A37",
"B. c #82563D",
"V. c #85593E",
"C. c #8B5C3E",
"Z. c #E6413D",
"A. c #D13C4E",
"S. c #825641",
"D. c #855B41",
"F. c #8B5D41",
"G. c #8A6446",
"H. c #98614C",
"J. c #946C52",
"K. c #A87357",
"L. c #AD7455",
"P. c #927473",
"I. c #AC7F61",
"U. c #DC635F",
"Y. c #DC5464",
"T. c #D46E71",
"R. c #C6777D",
"E. c #EA7879",
"W. c #4D833E",
"Q. c #4F8C3F",
"!. c #52873F",
"~. c #53913F",
"^. c #4D8443",
"/. c #4E8943",
"(. c #4E8548",
"). c #538542",
"_. c #598744",
"`. c #528D43",
"'. c #559244",
"]. c #599544",
"[. c #5C9A45",
"{. c #569248",
"}. c #5E9C48",
"|. c #609E46",
" X c #629F49",
".X c #63A247",
"XX c #66A449",
"oX c #6BAB4A",
"OX c #73B54F",
"+X c #B78768",
"@X c #C88A67",
"#X c #C79271",
"$X c #D59973",
"%X c #E4A77F",
"&X c #17538B",
"*X c #185FA0",
"=X c #1665A8",
"-X c #777987",
";X c #717B98",
":X c #8A7A85",
">X c #4499A7",
",X c #858487",
"<X c #B68B8F",
"1X c #B59698",
"2X c #8D99A1",
"3X c #98A3AE",
"4X c #D18B92",
"5X c #CC9197",
"6X c #E8AB82",
"7X c #EEA8A7",
"8X c #B2C2CF",
"9X c #AACBE0",
"0X c #EDC3C1",
"qX c #DFE4E4",
"wX c #F4EDEB",
"eX c #FCFCFC",
/* pixels */
"`.`.^.'.'.'.~.].~.'.'.'.'.~.~.'.'.'.'.'.'.'.'.'.'.'.[.[.{.'.'.q.4.G.F.F.F.D.B.C.G ).'.'.{.].].'.'./.'./.{.`.'.'.'.'.'.'.'.'.'.'.",
"^.^.^.'.'.~.'.~.'.~.~.W.` o.'.~.~.'.~.'.'./.'.'.'.'.'.'.'.'.'.'.} ^ C.C.F.B.F.B.[ t.{.'.'.'.'.'.`.^.{.w.`.'.'.'.'.'.'./.Q.~.~.'.",
"/.'.'.'.~.~...| B B Q.G V.v '.~.'.'.'./././.w./.'.{.'.'.{.'.'.'.).2.F.C.F.F.F.C.V.c ).'.'.'.{.'.'./.'.'.`.'.'.'.'.'.'...B Q.X.Q.",
"'.~.'.'.~.o.K J V.V.k  .l _ '.'.'.'.'.'.'.'./.'.{.'.'.{.{.{./.`.`.F F.G.F.F.F.B.C ..`.'.'.'.`.(.'.'.'.'.'.'.'.'.`.`.' ) s  .` !.",
"'.~.~.'.X.L C.C.C.C.K b k X.'.'.'.'.'.'.'.'.'.'.'.{.'.'.{.'./.^.).2.F.F.F.F.C.B.C ` `.{.{.'.`.'.'.'.'.'.'.'.'.'.'.e.) h O.h O.X.",
"'.~.'...8 J V.C.C.K q E D.0 Q.'.~.'.'.'.'.'.'.' ^./.'.{.{.'.{.'._.m V.C.F.F.C.V.n t.{.`.'.'.{.'.'.'.'.'.`.'.'.'.'.^.u ^.X.>.j j ",
"'.'.] L V.R R E L J q I I 0 G O.~.'.'.'.'.' ' 7.u ^.a '.'.{.'.'.'...U +.} V.V.R r.'.'.'.{.{.{.'.'./.'./.'.'.`.'.'. .h ^.:.-.d d ",
"/.~.; E B.B.C.E V.V.t t J V.V.b '.'.'.'.'.j /.h h '.; '.'.{.{.'.'.'.).!.].p.8.t.`.{.{.{.'.{.{.'.'./.'./.'.'.'.'./.^.^.j -.&.>.| ",
"`.Q.: q K B.V.^ C.C.R I K E E 8 '.'.'.'./.h ^.h /.^.; `.'.'.{.'.'.'.'.'.~.'.].].`.{.{.{.{.{.{.'.'.'.'.'.'.'.'.'.'.'.^.w.w.w./.^.",
"'.Q.z : > 7 P J L E ~ 0 4 6 6 A './.'.'.Q.j h w.>.-.- ;./.'.{.{.'.}.[.[.'.|.|.`.`.{.{.{.{.{.'.{.'.'.~.'..X[.'.].'.'.'.'.'.'.'.'.",
"`.G V.b _ V ~ D.^ I q x 0.h  ./.'.~./.'.^.h h w.-.s ) e./.{.{.'.{.[.OX'.'.OX{.`.{.'.{.'.{.{.'.{.'.{.|.|..XoXXXXX'.'.'.{.{.'.{.'.",
").l v b e.a P R q 7 6 ` o.b S `.~.'.'.'./.d w.>.&.j |.0./.{.'.{.'.].{.'.{.{.{.{.{.{.'.{.{.{.{.{.{.'.'.XX[.[.XX'.'.'.'.{.{.{.'.'.",
"`.e.j 0.'. .a > p j h X.Q B.b W.'.'.'.'.'.w.>.>.:.>.(.>./.{.{.{.{.'.'.{.`.{.{.'.`.{.{.{.{.{.'.{.{.'.'.].'.'.'.'.'.{.'.'.'.{.'.'.",
"'.'.'.`.'.~.'.`.`.` )./.i ; s `.'.`.`.'.'.'.'.`./.>.>.{.'.{.{.'.{.{.{.{.'.{.`.{.'.{.{.{.{.{.{.{.{.'.'.'.`.'.'.'.'.'.'.'.'.'.'.'.",
"`.'.'.'.'.`.'.`.`.` s `.^.e.).'.`.'.'.`.'.'.'.'.'.`.'.'.{.'.{.{.{.{.{.'.{.'.{.'.{.'.{.{.{.{.{.{.'.'.'.'.'.'.'.`.`.'.(.'.{.'.'.'.",
"`.'.'.'.'.'.W.Q.`.`.^.~.'.~.`.~.'.'.'.[.[.'.{.'.'.'.'.'.'.'.'.{.'.'.'.{.`.'.`.'.`.{.{.'.{.`.'.`.'.'.'./.'.^./.'.'.`./.'.`.'.'.'.",
"`.{.'.'.`.`.q.6.Q.`._ 5.e.e.`.~.'.|..X|.[.}.}.'.'.'.'.'.{.'.'.`.{.{.{.'.(.`.{.{.'.'.'.{.{.'.'.'./.`.q.f q.^.^.`.`.'.'.'.{.'.{.'.",
"`.'.'.'.X.a c w c N 8 0 x c A ).~.'..X|.].[.'.'.'.'.'.`.'.'.{.'.'.{.`.'.(.^.(.w.'.'.{.'.{.'.'.^.V 1.z w 8 V c W.'.'.{.'.'.'.'.'.",
"`.'.'. .Z 0 J I t 0 J L I J x q.'.~.'.'.'.'.'.'.'.`.'.`.`.(.`.{.'.'.{.'.'.`./.`.`.{.'.'.'.`.`...v 0 P Y Y J w _ `.'.'.'.'.{.'.'.",
"{.[.'.^.p P B.V.V.V.V.C.V.V.F _ `.'.'.'.'.'.'.`.'.'.`.`./.`.{.`.{.`.`.'.'.'.'.`.'.{.`.'.'.e.0.c ^ B.V.D.D.V.Q Z ).'.'.'.{.}..X[.",
"[.'.'.`.' m B.D.V.C.B.^ V.B.H e.`.~.'.'.`.`.'.'.`.'.'.`.`.'.'.'.'.'.`.'.'.'.'.'.'.`.).`.`.1.c P D.C.V.C.V.V.! X./.'.'.'.'.'.}.[.",
"`.'.'.).> J C.V.C.L L V.V.V.W a '.'.'.'.'.'.'.~.'.`.`.'.'.`.'.'.`.'.'.`.'.`.'.'.'.].w. .i q R V.V.V.C.C.C.C.~ z w.'.{.{.'.{.'.'.",
"`.'.'.'.X.+.W Q V.^ V.^ C.C.{ W.~.~.'.~.'.~.'.~.~.`.'.'.'.'.~.'./.^.w.^.`.'.'.'.'.`.w.6 9 I V.B.V.C.C.F.C.C.Q ..'.'.'.'.'.'.'.'.",
"`.'.'.'.'.`.^.t.V.C.C.V.V.V.^ m ~.].).`.~...`.`.~.`.'.'.'.!.y @ @ @ @ Q.'.'.'.'.`.' n J B.C.V.E D.V.C.C.C.C.V.M X.~.'.'.{.{.{.'.",
"`.`.{.`.`.~.'.o.B.C.C.V.V.V.V.~ ] ).z C e.t.} '.].~.].`.| < z.N.Z.N.n.k.` /.'.'.).z v ^ V.C.C.C.C.C.V.C.V.C.C.V.c O.'.'.].`.'.`.",
"(.`.'.).).].~.].[ ^ V.V.V.V.V.V.e m ~ ~ D w x t.~.`.~.X.< m.N.7X0X7XN.n.1 '.}.'.'.q.v C.C.F.F.C.C.C.V.V.T C.C.V.P [ |.'.`.].'.'.",
"`.).`.(.~.'.~.`.).Q C.C.C.C.V.V.~ V.V.V.R K J D ].'.~.| h.M.E.wXwXwXU.n., XXoX'.).` 4.F.C.C.C.C.C.V.R ^ C.V.V.C.i.` ^.~.'.'.'.'.",
"`.'.'.'.~.'.`.`.i Y C.C.C.C.C.C.C.C.V.V.V.B.V.m '.~.~.| k.x.T.R.R.R.R.b., '.'.'.'.Q.M C.C.F.C.F.C.B.C.B.V.C.C.V.D X.'.`.^.`.~.'.",
"'.'._.].~.'._.!...Q C.C.C.C.C.C.C.C.C.C.V.C./ [ '.~.| $ O ;X8X9X9X9X9X-X% -  .~.X.` U C.F.C.F.F.C.V.V.E C.C.C.C.Y ` '.^.^.~.`.'.",
"`.'.~.].~.].~.].t.Q V.C.^ ~ C.U x U G.M x V.B.c  X~.$ & & H.  t L.q   @ # & u ~.'.{ B.C.F.C.F.C.C.C.F.C.C.^ ^ C.^ o.~.~.'.'.'.'.",
"~.'.'.'.].]._.'.[.` b +.9._.+.t.[.X.! X.~.u.` `.'.'.'.S 4.#X^ K.@XI.# L.J.. | ~.O.F C.C.F.C.C.C.F.F.F.C.^ E B.C.W W.'.'.'.'.'.~.",
"`.~.B ~.~.~.~.~.'.`.)._.`.'.Q.`.'.`./.'.].).`.'.'.].~.] i.6X#X$X%X%X+X$XV.s ~.~.u Q C.C.C.C.C.C.F.F.F.F.F.C.C.C.^ C Q.'.'.~.'.].",
"^.) O. .X.W.'.~.~.[..X[.|.~.'.'.~.~.'.'.~.'.'.'.'.'.W.} ; @X6XL.L.@X6X+Xy ~.!.~.'.{ V.D.C.C.F.F.C.C.C.C.F.F.F.C.S Q.~.'.'.`.'.~.",
"V ) O._ ] ' ~.'.'.~..X[.XXXX}.'.].'.'.'.'.'.'.'.'.X.Q V.4.X T L.@XH.R # u ) ~.~.'.o.v V.C.C.F.F.F.C.C.C.F.C.C.C.Q o.[.~.'.e./.Q.",
"a .. X).).s X.'.~.'.~.'.'.'.'.'.`.`.'.'.'.'.'.~.'...i.B.9 ,.2 a.f.#.j.- ; @ Q.~.).D S.C.C.C.F.C.F.C.G.C.F.F.C.C.V.} .X~.~././.~.",
"a 0.w.w.' r.) '.~.'.'.'.'.'.~.'.'.'.'.'.`.`.w.'.~.~.= L h.>Xx.1XqXf.c.=.e .  .W.'.r.4.F.C.C.V.B.C.C.F.C.C.C.C.C.~ ) `.'.'.'.'.W.",
").0.-.d ;.(._ '.'.'.'.'.'.'.'.'.'.'.'.'.].).).~.~.~.] t z.s.c.1XeXP.n.%.l.. `.).~._ Y F.C.C.V.B.F.C.C.C.C.C.C.C.Y ` '.'.'.'.'.W.",
"' 6.-.>.g :.g `.'.'.'.'.'.'.'.'.~.'.'.~.~.~.~.~.~.~.!.1 m.5 m.1XeX>Xn.z.z.b.) `.'.q.v F.C.C.V.V.C.C.C.C.C.C.F.C.V.W `.[.'.].'.W.",
"-.;.>.w.j -.6.`.'.'.'.'.'.'.'.'.'.`.~.'.~._.~.~.~.~.y h.g.c.v.1XeX,Xm.n.h.v.k ~.~.'. .! ( +.+./ C.V.( ^ C.C.C.C.V.8.'.'.'.'.'.'.",
")././.'.(.(.'.'.'.'.'.'.'.`.'.'.e.[. .~.~.].~.~.~.!.. , 2 M.v.1XeX,Xv.v.2 j.k ~.'.'.'.)._.].`.y.V.C.B.C.C.C.C.G.V.X.'.'.'.'.'.'.",
"'.'.'.~.'.'.'.'.'.'.'.].`.].'.`.' q.7.^.Q.X.' `.Q.6.+XJ.o 2 h.:X8Xd.h.2 o 4.G. .'.'.'.`.'.'.'.`.+.V.F.C.C.C.C.C.{ '.~.].'.'.'.'.",
"`.'.'.'.'.~.~.'.'.'.'.'.'...e.C 7 8 w c Z c C ].'.Q.u.4.o &X&X<.<.<.<.<.: V.v X.'.'.'./.'./.'.'._./ C.C.C.C.C.V.! _.[.].'.'.~.].",
"'.'.'.`.^.'.^.`.'.~.~.].[.Z 8 q U R I J q q c  X~.~.Q.W.+ =X=X&X* $.*X*X#.t 4 _ '.'.'././.^.'.'.).U C.F.C.C.C.C.~ Z X.~.[.~..X'.",
"'.'.'.'.'.'.'.'.'.~.'.{._.x e R F.D.V.V.R 4.C _ '.'.'.~.y #.a.@.y - a.=.4 8 i 0.'.'.'.'.'.'.'.[.r.P C.C.C.C.V.B.A `.'.[.oX[..XXX",
"'.'.'.'.'.'.'.'.'.W..._ 8 t V.C.C.C.C.C.V.E C e.'.~.].'.).2.$X= !.G.#XJ.= *.W.`.'.'.'.{.'.'.'.].'.F D.C.V.F.C.V.C  .'..X[.~.|.|.",
"'.'.'.'.'.'.'.'.'.^.x 0 q E C.C.C.C.F.C.C.V.F q.~.'.'.'.y f.3X: [.s.2X-Xd /...A '.'.'.{.{.'.{.'.).V ^ B.U V.C.V.O.'.'.'.~.[.~.~.",
"`.`./.'.'.'.'.~...C q J E C.V.B.F.C.C.C.C.C.H ).'.~.'.{.$ 5X4X= W.2.4X5Xp.'.G ] `.'.'.'.{.'.{.'.'./.+.+.o.H / +.'.'.].'.].'.'.'.",
"0.w.'.'.'.'.'.'.8 q E V.C.C.C.C.C.C.C.C.C.C.^ l ~.'.'.).r Y.A.O  .r A.Y.r {.`.`.'.'.'.{.'.'.'.'.'.'.`.'.'.`.).`.'.'.'.'.'.'.].'.",
"`.'.'.'.{.'.'.'.X.F V.C.C.C.C.C.C.C.C.B.C.C.B.9.{.~.'. .P.<X<X= ;.: <X5X3.>.'.'.'.'.'.'.'.'.'.'.'.'.'.'.'.'.'.'.'.'.[.'.'.'.'.'.",
"'.{.{.'.'.'.'.'.].] K C.C.C.C.C.C.E B.B.B.C.U ] '.].'.^.&.&.p d 0.:.i d -.>.'.'.'.'.'..._ ..'.'.'.'.'.'.'.'.'.'.'.'.'.'.`.[.'.'.",
"'.'.'.'.'.'.^./.W.m V.C.C.C.C.C.B.E B.C.C.E } Q.'.~.~.'././././.`.`././.`.{.].'.'.'.X.Q ^ ~ o.'.'.'.{.'.'.'.~.~.].'.~.'./.{.`.^.",
"'.'.'.].'.'././.'._.R C.C.C.C.C.V.B.T C.C.E } Q.~.'.'.].'.'.'.'.'.'.'.{.{.{.'.'.'. .K C.V.R 8 ..'.'.'.'.'.] S o.'.'.~.~.'./.`.'.",
"'.'.{.].'.{.'.'.^.] R C.C.C.C.C.C.C.C.C.C.R ] W.]..X].XX[.'.'.[.'.{.'.'.'.'.{.{...Q ^ R P t e l '.'.'.'.'.i V.~ S ` | !.'.'.~.'.",
"'.'.'.'.'.].'.'.e.m C.C.C.Y C.C.C.V.C.C.C.B.V w.'.XX]..X.X'.'.'.{.'.'.{.'.'.'.'.; ^ D.^ 3 9 x 6.'.'.'.'.) ~ C.C.V.q I l W.'.~.'.",
"`.].'.'.'.{.'.'.7.W C./ ! o.Q ( Q [ Y ! { Q 7./.~.'.'.'.{.{.'.{.{.'.'.'.'.'.'.'.> e P v > p j '.'.{.[.Q.m ^ V.V.R I C.K  .~.'.~.",
"'.'.'.].].'.'.'.'.).D O.).~.!._.t.`.e.`.`.X.'.'.'.].'.'.'.'.'.'.'.'.'.'.'.'.'.'.e.f i f w./.{.'.{.{.'.w.U V.R K t R ~ q > w.'.~.",
"'.'.'.}.[.].'.'.'.'.'.'.'.'.].'.].'.].'.'.'.'.'.].{.{.'.'.'.'.'././.e.6.{.XX'.'.'.`.`.'.'.'.'.'.'.'.'.S J E t 4.V.R e J 4 *.^.'.",
"'.XXoXoX.XoX].].'.'.'.].'.'.'.'.'.'.'.'.'.[.'.'.'.'.'.'.].'.'.'.V V 8 w 9.9.O.'.~.'.'.'.'.'.{.'.'.'...K T T 4.D.C.R 5 9 4 ;./.~.",
"`. X{.[.'.[.{.{.{.'.'.'.^./.'.'.'.'.'..X[..X.X'.'.'.'.{.'.'.].5.w q e I q w x q.].'.'.'.'.'.'.].'.].i I J 4.t I C.~ 3 ^ V.8  .'.",
"`.].'.'.'.'.`.'.'.'.{.'.^./.>.'.'.'.{..X[..X[.'.'.].].'.'.].^.C M ~ B.V.B.^ J 7.'.'.'.'.'.'.'.'.'.'.6.z v q = 5 q 8 9 B.P 7 j '.",
"].'.{.{.{.{.).`.'.'.'.'.'.'./.'.'.'.{.{.'.'.'.'.'.].'.'.'.'.'.).} B.C.C.F.^ R _ '.'.'.'.{./.'.'.'.'.'.^.5.Z *.*.*.*.7.x 6 d e.'.",
"`.'.].'.{.'.`.'.'.].'.].'.'.'.'.'.].'.].{.{.'.'.'.'.].'.'.'.).1.B.C.F.B.S.V.Y c 6.[.'.'./.w./.`.'.'.'.'.{.`.).^.0.^.'.(.^.^.'.~.",
"].].'.].[.'.'.'.].'.'.'.'.'.'.'.].{.'.'.'.'.'.'.`.(.'.'.{.'.`.0.e B.F.~ B.G.D.2.q.'.'.{.`.`.^.'.'.'.'.{.'.'.'.`.`.'.'.'.'.'.'.~.",
"_.{._.'.{._.'.{.{.{.{.].'.{.'.'.'.'.{.{.{.{.'.{.'.(.{.'.{.`.e.x 4.F.G.D.F.D.D.M )._.].`.`.{.'.'.'.'.{.'.{.'.'.{.'.`.`.'.`.'.`.`."
};
